<svg id="discord" viewBox="0 0 44 45" fill="none" xmlns="http://www.w3.org/2000/svg">
    <g clip-path="url(#clip0)">
        <path d="M30.222 10.002C31.628 10.002 32.762 11.139 32.829 12.477V34.002L30.152 31.729L28.682 30.391L27.078 28.993L27.748 31.198H13.71C12.308 31.198 11.17 30.133 11.17 28.722V12.482C11.17 11.144 12.31 10.005 13.715 10.005H30.215L30.222 10.002ZM24.104 15.685H24.074L23.872 15.885C25.945 16.485 26.948 17.422 26.948 17.422C25.612 16.754 24.408 16.42 23.204 16.285C22.334 16.15 21.464 16.221 20.729 16.285H20.529C20.059 16.285 19.059 16.485 17.719 17.02C17.252 17.223 16.984 17.356 16.984 17.356C16.984 17.356 17.986 16.354 20.194 15.819L20.059 15.684C20.059 15.684 18.387 15.62 16.582 16.954C16.582 16.954 14.777 20.098 14.777 23.974C14.777 23.974 15.777 25.714 18.52 25.78C18.52 25.78 18.92 25.247 19.325 24.778C17.785 24.31 17.185 23.374 17.185 23.374C17.185 23.374 17.319 23.44 17.52 23.574H17.58C17.61 23.574 17.624 23.589 17.64 23.604V23.61C17.656 23.626 17.67 23.64 17.7 23.64C18.03 23.776 18.36 23.91 18.63 24.04C19.096 24.242 19.695 24.443 20.43 24.576C21.36 24.711 22.426 24.776 23.64 24.576C24.24 24.441 24.84 24.309 25.44 24.041C25.83 23.841 26.31 23.641 26.837 23.304C26.837 23.304 26.237 24.24 24.632 24.708C24.962 25.174 25.427 25.708 25.427 25.708C28.171 25.648 29.237 23.908 29.297 23.982C29.297 20.112 27.482 16.962 27.482 16.962C25.847 15.748 24.317 15.702 24.047 15.702L24.103 15.682L24.104 15.685ZM24.272 20.098C24.975 20.098 25.542 20.698 25.542 21.433C25.542 22.173 24.972 22.773 24.272 22.773C23.572 22.773 23.002 22.173 23.002 21.439C23.004 20.699 23.575 20.101 24.272 20.101V20.098ZM19.729 20.098C20.429 20.098 20.995 20.698 20.995 21.433C20.995 22.173 20.425 22.773 19.725 22.773C19.025 22.773 18.455 22.173 18.455 21.439C18.455 20.699 19.025 20.101 19.725 20.101L19.729 20.098Z"
              fill="currentColor"/>
    </g>
    <defs>
        <clipPath id="clip0">
            <rect width="24" height="24" fill="currentColor" transform="translate(10 10.002)"/>
        </clipPath>
    </defs>
</svg>
