<svg id="github" viewBox="0 0 44 45" fill="none" xmlns="http://www.w3.org/2000/svg">
    <path d="M18.9292 29.0722V31.9021H26.199V28.2314C26.1994 27.7403 26.1038 27.254 25.9179 26.801C25.732 26.348 25.4595 25.9373 25.1162 25.593C29.1234 24.8739 30.8002 22.3834 30.8002 19.4202C30.8002 17.9821 30.3313 16.6513 29.4105 15.5843C29.9561 13.8534 29.3366 12.3863 29.2542 12.163C27.7195 12.0209 26.128 13.1865 25.8068 13.4358C24.8605 13.1749 23.7862 13.0328 22.5812 13.0328C21.3819 13.0328 20.3104 13.1691 19.3726 13.4272C19.239 13.3199 17.5225 11.963 15.8713 12.1137C15.786 12.337 15.1522 13.8389 15.732 15.593C14.8226 16.6571 14.3593 17.9763 14.3593 19.4115C14.3593 22.3689 16.0247 24.8565 20.0206 25.5872C19.5431 26.0598 19.1964 26.6687 19.0344 27.35C18.2926 27.5385 16.829 27.7298 16.0787 26.5962C15.0414 25.0334 14.1462 24.4564 13.268 24.9174C12.8986 25.3523 14.1348 25.5843 14.6577 26.4947C14.9164 26.9296 15.0727 29.5332 18.9292 29.0722Z"
          fill="currentColor"/>
</svg>
