<svg id="medium" viewBox="0 0 44 45" fill="none" xmlns="http://www.w3.org/2000/svg">
    <path d="M33.0926 14.4288L35.1998 12.5201V12.1021H27.902L22.7011 24.3644L16.7851 12.1021H9.13324V12.5201L11.5945 15.3264C11.8351 15.5338 11.9589 15.8385 11.9279 16.1431V27.1708C12.0036 27.5694 11.8695 27.9745 11.5739 28.2629L8.7998 31.4484V31.8599H16.6579V31.4419L13.8873 28.2661C13.7389 28.124 13.6272 27.9516 13.561 27.7621C13.4948 27.5727 13.4759 27.3715 13.5057 27.174V17.6337L20.4048 31.8664H21.2057L27.1389 17.6337V28.9726C27.1389 29.2707 27.1389 29.3323 26.9326 29.5299L24.7979 31.484V31.9021H35.1517V31.484L33.0926 29.5753C32.9139 29.4457 32.8211 29.2286 32.8589 29.0179V14.9862C32.8411 14.882 32.8534 14.7753 32.8945 14.6772C32.9357 14.5791 33.0041 14.4933 33.0926 14.4288Z"
          fill="currentColor"/>
</svg>
