<svg id="reddit" viewBox="0 0 44 45" fill="none" xmlns="http://www.w3.org/2000/svg">
    <path fill-rule="evenodd" clip-rule="evenodd"
          d="M26.2078 26.5154C25.1506 26.5154 24.2631 25.6652 24.2631 24.6177C24.2631 23.5701 25.1506 22.6931 26.2078 22.6931C27.265 22.6931 28.123 23.5713 28.123 24.6188C28.123 25.6652 27.265 26.5154 26.2078 26.5154ZM26.6568 30.1975C25.6727 31.1727 24.1535 31.6456 22.0144 31.6456H21.9838C19.8447 31.6456 18.3279 31.1727 17.3437 30.1975C17.272 30.1264 17.2151 30.0421 17.1763 29.9492C17.1375 29.8563 17.1175 29.7568 17.1175 29.6562C17.1175 29.5557 17.1375 29.4562 17.1763 29.3633C17.2151 29.2704 17.272 29.186 17.3437 29.115C17.4155 29.0439 17.5006 28.9875 17.5944 28.949C17.6881 28.9105 17.7886 28.8907 17.89 28.8907C17.9915 28.8907 18.0919 28.9105 18.1856 28.949C18.2794 28.9875 18.3645 29.0439 18.4363 29.115C19.1151 29.7876 20.2749 30.1146 21.9838 30.1146L21.9991 30.1158H22.0144C23.7234 30.1158 24.8842 29.7876 25.5643 29.115C25.636 29.0439 25.7212 28.9875 25.8149 28.949C25.9086 28.9105 26.0091 28.8907 26.1105 28.8907C26.212 28.8907 26.3125 28.9105 26.4062 28.949C26.4999 28.9875 26.5851 29.0439 26.6568 29.115C26.7286 29.186 26.7855 29.2704 26.8243 29.3633C26.8631 29.4562 26.8831 29.5557 26.8831 29.6562C26.8831 29.7568 26.8631 29.8563 26.8243 29.9492C26.7855 30.0421 26.7286 30.1264 26.6568 30.1975ZM15.8776 24.6177C15.8776 23.5713 16.7651 22.6931 17.8211 22.6931C18.8782 22.6931 19.7351 23.5713 19.7351 24.6188C19.7351 25.6652 18.8782 26.5154 17.8211 26.5154C16.7651 26.5154 15.8776 25.6652 15.8776 24.6177ZM31.4265 12.533C32.1419 12.533 32.7253 13.1099 32.7253 13.8188C32.7253 14.5276 32.1419 15.1057 31.4265 15.1057C31.0821 15.1054 30.752 14.9697 30.5085 14.7284C30.265 14.4871 30.128 14.16 30.1277 13.8188C30.1277 13.1099 30.7099 12.533 31.4265 12.533ZM36.1431 22.5342C36.1422 21.6413 35.7838 20.7852 35.1466 20.1537C34.5093 19.5223 33.6453 19.1672 32.7441 19.1662C31.9321 19.1662 31.1872 19.45 30.6015 19.9218C28.5296 18.6314 25.899 17.8536 23.0787 17.6889L24.5495 13.0807L28.592 14.0243C28.6449 14.7337 28.9664 15.397 29.492 15.8815C30.0177 16.366 30.7086 16.6357 31.4265 16.6367C32.1803 16.6358 32.903 16.3386 33.436 15.8103C33.9689 15.282 34.2686 14.5657 34.2692 13.8188C34.2683 13.072 33.9685 12.3561 33.4356 11.828C32.9027 11.2999 32.1801 11.0029 31.4265 11.002C30.3304 11.002 29.377 11.6209 28.9032 12.5236L24.2054 11.4282C24.016 11.3842 23.8168 11.4127 23.6476 11.5079C23.4785 11.6032 23.3519 11.7583 23.2932 11.9421L21.4664 17.6609C18.428 17.7345 15.5724 18.5158 13.3472 19.8821C12.7509 19.418 12.0146 19.1659 11.2564 19.1662C10.3552 19.1672 9.49123 19.5223 8.854 20.1537C8.21677 20.7852 7.85836 21.6413 7.85742 22.5342C7.85755 23.0798 7.99162 23.6172 8.24807 24.1C8.50452 24.5828 8.87565 24.9965 9.32946 25.3055C9.29192 25.5737 9.27302 25.8441 9.27289 26.1148C9.27289 28.4364 10.6341 30.5958 13.108 32.1957C15.4781 33.729 18.6166 34.5734 21.9425 34.5734C25.2685 34.5734 28.407 33.729 30.7783 32.1957C33.2509 30.5958 34.6133 28.4353 34.6133 26.1148C34.6133 25.8661 34.5957 25.6196 34.5662 25.3756C35.0491 25.0717 35.4468 24.652 35.7225 24.1553C35.9981 23.6587 36.1428 23.1011 36.1431 22.5342Z"
          fill="currentColor"/>
</svg>
