<svg id="youtube" viewBox="0 0 44 45" fill="none" xmlns="http://www.w3.org/2000/svg">
    <path d="M34.6488 15.9512C34.4985 15.4188 34.2039 14.9333 33.7944 14.5433C33.3848 14.1533 32.8748 13.8724 32.3153 13.7288C30.2557 13.2019 21.9998 13.2019 21.9998 13.2019C21.9998 13.2019 13.7439 13.2019 11.6844 13.726C11.1246 13.8691 10.6143 14.1499 10.2047 14.54C9.79507 14.9301 9.50058 15.4158 9.35079 15.9484C8.7998 17.9102 8.7998 22.0019 8.7998 22.0019C8.7998 22.0019 8.7998 26.0936 9.35079 28.0526C9.65427 29.1344 10.55 29.9864 11.6844 30.275C13.7439 30.8019 21.9998 30.8019 21.9998 30.8019C21.9998 30.8019 30.2557 30.8019 32.3153 30.275C33.4526 29.9864 34.3453 29.1344 34.6488 28.0526C35.1998 26.0936 35.1998 22.0019 35.1998 22.0019C35.1998 22.0019 35.1998 17.9102 34.6488 15.9512ZM19.3775 25.7573V18.2465L26.2132 21.9739L19.3775 25.7573Z"
          fill="currentColor"/>
</svg>
