<svg width="162" height="60" viewBox="0 0 162 60" fill="none" xmlns="http://www.w3.org/2000/svg">
  <g clip-path="url(#clip0_32010_13721)">
    <path
      d="M65.1268 24.1903H62.5798V35.4951H65.1268V27.826C65.7926 26.5507 66.7043 25.9608 68.1684 25.9608C69.9929 25.9608 70.9244 26.7987 70.9244 28.6251V35.4942H73.4714V28.2625C73.4714 25.5603 71.9892 24 69.3658 24C67.0468 24 65.7728 25.1996 65.1268 27.1973V24.1903Z"
      fill="white" />
    <path
      d="M36.4246 29.8615C36.4246 26.2078 38.6481 24.0008 42.5456 24.0008C46.1385 24.0008 47.944 25.8849 48.2864 28.6629H45.6438C45.3781 27.0069 44.3898 26.0563 42.4889 26.0563C40.1697 26.0563 39.0103 27.3307 39.0103 29.8435C39.0103 32.3563 40.3031 33.6307 42.4889 33.6307C44.4655 33.6307 45.4728 32.6413 45.7205 31.0043H48.3819C48.0394 33.8778 45.9871 35.6853 42.4699 35.6853C38.6489 35.6853 36.4246 33.4007 36.4246 29.8615Z"
      fill="white" />
    <path fill-rule="evenodd" clip-rule="evenodd"
      d="M61.1922 29.8047C61.1922 33.4205 58.911 35.6853 55.1856 35.6853C51.6692 35.6853 49.179 33.6487 49.179 29.8814C49.179 26.114 51.4603 24.0008 55.1856 24.0008C58.702 24.0008 61.1922 26.0373 61.1922 29.8047ZM58.6073 29.8805C58.6073 27.254 57.2389 26.0554 55.1856 26.0554C53.0189 26.0554 51.7638 27.254 51.7638 29.8038C51.7638 32.3536 53.1325 33.6289 55.1856 33.6289C57.3524 33.6289 58.6073 32.4302 58.6073 29.8805Z"
      fill="white" />
    <path
      d="M74.5363 32.0305H77.1977C77.4068 33.1534 78.2816 33.6865 80.2204 33.6865C82.1592 33.6865 82.9006 33.0777 82.9006 32.2596C82.9006 31.6508 82.616 31.1944 81.5321 31.061L78.2627 30.6803C75.7725 30.3953 74.8409 29.3292 74.8409 27.5597C74.8409 25.5429 76.3049 24.0015 79.9159 24.0015C83.5267 24.0015 84.9151 25.4861 85.2387 27.6363H82.5961C82.4438 26.6469 81.779 26.0002 79.8402 26.0002C77.9013 26.0002 77.2933 26.609 77.2933 27.4081C77.2933 28.0738 77.6545 28.4733 78.6618 28.5879L82.0646 28.9874C84.5359 29.2724 85.353 30.4531 85.353 32.1649C85.353 34.1816 83.8132 35.6852 80.1636 35.6852C76.5139 35.6852 74.821 34.2953 74.5363 32.0305Z"
      fill="white" />
    <path fill-rule="evenodd" clip-rule="evenodd"
      d="M86.3213 29.8806C86.3213 33.1916 88.3745 35.6845 92.2144 35.6845C95.4271 35.6845 97.4037 34.1621 97.974 31.8405H95.3694C94.9892 32.9634 94.0198 33.629 92.2901 33.629C90.37 33.629 89.1349 32.5061 88.9069 30.4894H98.0497C98.0686 26.5308 96.3577 24 92.2333 24C88.5258 24 86.3213 26.3793 86.3213 29.8806ZM95.3694 28.7577H88.9448C89.2683 26.9502 90.4466 25.9987 92.2144 25.9987C94.2289 25.9987 95.1983 27.0828 95.3694 28.7577Z"
      fill="white" />
    <path
      d="M99.3041 24.1903H101.851V27.1973C102.497 25.1996 103.771 24 106.09 24C108.713 24 110.196 25.5603 110.196 28.2625V35.4942H107.649V28.6251C107.649 26.7987 106.717 25.9608 104.892 25.9608C103.428 25.9608 102.517 26.5507 101.851 27.826V35.4951H99.3041V24.1903Z"
      fill="white" />
    <path
      d="M113.922 32.0305H111.261C111.545 34.2953 113.238 35.6852 116.888 35.6852C120.538 35.6852 122.077 34.1816 122.077 32.1649C122.077 30.4531 121.26 29.2724 118.789 28.9874L115.386 28.5879C114.379 28.4733 114.017 28.0738 114.017 27.4081C114.017 26.609 114.626 26.0002 116.564 26.0002C118.503 26.0002 119.168 26.6469 119.32 27.6363H121.963C121.639 25.4861 120.251 24.0015 116.64 24.0015C113.029 24.0015 111.565 25.5429 111.565 27.5597C111.565 29.3292 112.497 30.3953 114.987 30.6803L118.256 31.061C119.34 31.1944 119.625 31.6508 119.625 32.2596C119.625 33.0777 118.883 33.6865 116.945 33.6865C115.006 33.6865 114.131 33.1534 113.922 32.0305Z"
      fill="white" />
    <path
      d="M134.222 24.1909L129.488 38.2728H123.311V36.1794H127.606L128.233 34.2574H125.781L122.074 24.1909H124.887L128.29 34.086L131.559 24.1909H134.222Z"
      fill="white" />
    <path
      d="M136.844 32.0321H134.183C134.468 34.2968 136.161 35.6867 139.81 35.6867C143.46 35.6867 145 34.1832 145 32.1664C145 30.4546 144.183 29.2739 141.711 28.9889L138.308 28.5894C137.301 28.4748 136.94 28.0753 136.94 27.4097C136.94 26.6105 137.548 26.0017 139.487 26.0017C141.426 26.0017 142.091 26.6484 142.243 27.6378H144.885C144.562 25.4876 143.174 24.0031 139.563 24.0031C135.952 24.0031 134.488 25.5445 134.488 27.5612C134.488 29.3308 135.419 30.3969 137.909 30.6819L141.179 31.0625C142.263 31.196 142.547 31.6523 142.547 32.2611C142.547 33.0792 141.806 33.688 139.867 33.688C137.928 33.688 137.054 33.155 136.844 32.0321Z"
      fill="white" />
    <path
      d="M30.5485 35.4948V39.7339C30.5485 48.3175 23.5977 55.276 15.0235 55.276C6.44921 55.276 -0.502441 48.3167 -0.502441 39.733C-0.502441 31.1493 6.44832 24.1909 15.0226 24.1909H19.257L11.4945 31.9619V43.2694H22.7842L30.5485 35.4948Z"
      fill="white" />
    <path d="M30.5485 24.1909V35.4948H19.257V24.1909H30.5485Z" fill="white" />
  </g>
  <defs>
    <clipPath id="clip0_32010_13721">
      <rect width="162" height="60" fill="white" />
    </clipPath>
  </defs>
</svg>
