<svg width="162" height="60" viewBox="0 0 162 60" fill="none" xmlns="http://www.w3.org/2000/svg">
  <path fill-rule="evenodd" clip-rule="evenodd"
    d="M33.928 29.132C34.0444 29.4988 34.3286 29.7865 34.69 29.932C36.2751 30.5705 37.367 32.1501 37.2418 33.964C37.1003 36.0099 35.3693 37.6548 33.2824 37.7297C32.4267 37.7607 31.6266 37.535 30.9549 37.1243C30.6283 36.9243 30.2298 36.8773 29.8662 36.9981L17.6353 41.0579C17.497 41.1029 17.3936 41.2184 17.3707 41.3585C17.1008 42.9916 15.5538 44.2044 13.7673 43.9712C12.3586 43.7873 11.2242 42.6761 11.0316 41.2932C10.8552 40.0291 11.4442 38.889 12.4054 38.2462C12.5121 38.1746 12.572 38.0516 12.5709 37.9243L12.339 14.5751C12.3368 14.4094 12.2476 14.2586 12.1028 14.1719C11.3886 13.7452 10.9303 12.9484 11.0087 12.0522C11.1012 10.9934 11.9678 10.1228 13.0434 10.0127C14.1288 9.90144 15.077 10.5346 15.4319 11.4543C15.4841 11.5912 15.5984 11.6971 15.741 11.7399L26.7244 15.0724C27.1228 15.1933 27.5659 15.1409 27.899 14.8949C28.2626 14.6265 28.7318 14.4874 29.2348 14.5495C30.0785 14.6532 30.7502 15.342 30.8242 16.174C30.8656 16.636 30.7284 17.0649 30.4726 17.4039C30.3518 17.5633 30.3202 17.7708 30.3801 17.9601L33.928 29.132ZM15.9022 13.0158C15.679 12.9538 15.4428 13.0564 15.3372 13.2596C15.3274 13.28 15.3165 13.3003 15.3056 13.3195C15.2076 13.4949 15.2435 13.7142 15.3818 13.8607L24.1334 23.1289L27.1871 18.1772C27.4026 17.8275 27.4614 17.3954 27.3035 17.0168C27.2306 16.8425 27.186 16.6532 27.1729 16.4553L27.1707 16.4489C27.1283 16.1954 26.9672 16.1024 26.8735 16.0681L15.9022 13.0158ZM14.7972 37.7553C14.8015 37.7553 14.8113 37.7575 14.8113 37.7575L14.8102 37.7553C14.9735 37.7864 15.1379 37.7136 15.2239 37.5746L23.1014 24.8006L14.3693 14.5912C14.2452 14.4446 14.0471 14.3815 13.8588 14.4286L13.8522 14.4307C13.6345 14.4853 13.4854 14.681 13.4952 14.9013L14.4706 37.3874C14.4782 37.5703 14.6143 37.7211 14.7972 37.7553ZM29.004 33.6816C29.004 33.3287 29.0508 32.9854 29.1368 32.6592L29.1346 32.6613C29.2392 32.2688 29.1281 31.8517 28.8625 31.5416L24.0626 25.9299L16.9277 38.8174C16.8602 38.9382 16.8613 39.0858 16.9342 39.2024L16.937 39.2055L16.9375 39.2066C17.042 39.3735 17.2521 39.4462 17.4361 39.3703L28.218 34.9329C28.7079 34.7319 29.0105 34.256 29.004 33.7351V33.6816ZM31.3811 30.0122C31.3879 30.009 31.3947 30.0058 31.4012 30.0026H31.4001C31.7169 29.8582 31.8998 29.5277 31.8301 29.1919L29.6518 18.6349C29.5897 18.3344 29.3165 18.1344 29.004 18.1344H28.9986C28.9474 18.1344 28.8962 18.1323 28.8462 18.128C28.5827 18.1055 28.3291 18.2253 28.2028 18.4531L25.0664 24.1182L30.4933 29.8646C30.7154 30.0999 31.0659 30.1598 31.3609 30.0218C31.3675 30.0186 31.3743 30.0154 31.3811 30.0122Z"
    fill="white" />
  <path fill-rule="evenodd" clip-rule="evenodd"
    d="M40.7452 30.0617C40.7452 29.0243 40.9433 28.0393 41.3396 27.111V27.112C41.7358 26.1837 42.29 25.3591 43.0019 24.6404C43.6932 23.9207 44.5064 23.3667 45.4416 22.9774C46.3757 22.5881 47.3826 22.3934 48.4604 22.3934C49.5175 22.3934 50.4777 22.6031 51.3421 23.0223C52.2064 23.4415 52.9326 24.0212 53.5226 24.7602V16.3765H56.2061V37.5813H53.5226V35.2744C52.8716 36.0338 52.1041 36.6327 51.2201 37.0722C50.3361 37.5118 49.4162 37.731 48.4604 37.731C47.3826 37.731 46.3767 37.5364 45.4416 37.1471C44.5064 36.7578 43.6932 36.2027 43.0019 35.484C42.29 34.7653 41.7358 33.9408 41.3396 33.0124C40.9433 32.0841 40.7452 31.1002 40.7452 30.0617ZM43.8859 28.1591C43.6214 28.7687 43.4897 29.4029 43.4897 30.0617H43.4875C43.4875 31.3996 43.9763 32.5675 44.9517 33.5664C45.3991 34.0263 45.9282 34.3867 46.5379 34.6456C47.1475 34.9054 47.7887 35.0349 48.4593 35.0349C49.1299 35.0349 49.7755 34.9054 50.396 34.6456C51.0165 34.3857 51.55 34.0263 51.9974 33.5664C52.9739 32.5686 53.4616 31.3996 53.4616 30.0617C53.4616 29.4029 53.3299 28.7687 53.0654 28.1591C52.8019 27.5495 52.4459 27.0158 51.9985 26.5559C51.5511 26.096 51.0176 25.742 50.3971 25.4918C49.7766 25.2426 49.131 25.1174 48.4604 25.1174C47.7898 25.1174 47.1486 25.2426 46.5389 25.4918C45.9282 25.742 45.4002 26.0971 44.9528 26.5559C44.5054 27.0158 44.1505 27.5495 43.8859 28.1591Z"
    fill="white" />
  <path fill-rule="evenodd" clip-rule="evenodd"
    d="M58.9113 30.1813C58.9113 29.1632 59.1094 28.1889 59.5057 27.2605L59.5068 27.2584C59.903 26.3301 60.4572 25.5162 61.1691 24.8168C61.8604 24.1173 62.6791 23.5783 63.624 23.1986C64.569 22.82 65.5607 22.6296 66.5971 22.6296C67.6335 22.6296 68.6253 22.8189 69.5702 23.1986C70.5152 23.5783 71.3338 24.1173 72.0251 24.8168C73.5296 26.3354 74.2819 28.0937 74.2819 30.0904C74.2819 30.4498 74.2514 30.8295 74.1904 31.2284H61.8387C61.8387 31.7075 62.0161 32.208 62.3721 32.7267C62.7281 33.2465 63.1396 33.6861 63.6077 34.0454C64.4612 34.7042 65.4573 35.0336 66.596 35.0336C68.4054 35.0336 69.8794 34.1748 71.0181 32.4572L73.3358 33.8059C72.5433 35.0636 71.5679 36.0325 70.4085 36.7117C69.2491 37.3919 67.9786 37.7309 66.596 37.7309C65.5597 37.7309 64.5733 37.5362 63.6382 37.147C62.703 36.7577 61.88 36.2133 61.1681 35.5138C60.4561 34.8155 59.902 34.0058 59.5057 33.0872C59.1094 32.1695 58.9113 31.2006 58.9113 30.1813ZM62.494 27.0509C62.0564 27.6402 61.8387 28.2648 61.8387 28.9236H71.3534C71.3534 28.2648 71.1346 27.6402 70.6981 27.0509C70.2604 26.4616 69.6758 25.9868 68.9443 25.6274C68.2127 25.2681 67.4299 25.0884 66.596 25.0884C65.7621 25.0884 64.9794 25.2681 64.2478 25.6274C63.5152 25.9868 62.9306 26.4616 62.494 27.0509Z"
    fill="white" />
  <path
    d="M79.2122 24.8489C79.9242 24.1494 80.7417 23.605 81.6671 23.2157C82.5924 22.8264 83.5733 22.6318 84.6097 22.6318C87.0091 22.6318 89.0416 23.6307 90.7094 25.6274L88.3307 26.9761C87.2736 25.8777 86.0326 25.328 84.6097 25.328C83.9391 25.328 83.3033 25.4531 82.7035 25.7023C82.1036 25.9526 81.58 26.297 81.1326 26.7354C80.6851 27.175 80.3291 27.6937 80.0646 28.2937C79.8001 28.8926 79.6683 29.5225 79.6683 30.1814C79.6683 30.8402 79.8001 31.4701 80.0646 32.069C80.3291 32.6679 80.6851 33.1877 81.1326 33.6273C81.5789 34.0668 82.1036 34.4112 82.7035 34.6615C83.3033 34.9117 83.9391 35.0358 84.6097 35.0358C86.0326 35.0358 87.2725 34.4871 88.3307 33.3877L90.7094 34.7353C89.0416 36.7331 87.0091 37.7309 84.6097 37.7309C83.5722 37.7309 82.5914 37.5363 81.6671 37.147C80.7417 36.7577 79.9231 36.2133 79.2122 35.5139C78.5209 34.8347 77.9766 34.0305 77.5803 33.1021C77.1841 32.1738 76.9859 31.1995 76.9859 30.1814C76.9859 29.1621 77.1841 28.1889 77.5803 27.2606C77.9766 26.3322 78.5209 25.528 79.2122 24.8489Z"
    fill="white" />
  <path
    d="M97.2447 34.0474C96.5741 33.3886 96.2388 32.5993 96.2388 31.6806L96.2377 31.6795V22.6016H93.5542V31.6784C93.5542 32.4977 93.7109 33.272 94.0266 34.0003C94.3424 34.7297 94.7746 35.3735 95.3232 35.9329C95.8926 36.4922 96.548 36.9275 97.2904 37.2366C98.0318 37.5457 98.8102 37.7008 99.6234 37.7008C100.233 37.7008 100.848 37.5617 101.469 37.2815C102.089 37.0024 102.602 36.6527 103.009 36.2334V37.5821H105.662V22.6016H103.009V31.6806C103.009 32.5993 102.674 33.3886 102.003 34.0474C101.697 34.3468 101.331 34.5864 100.905 34.7661C100.477 34.9458 100.05 35.0356 99.6234 35.0356C98.7089 35.0356 97.9153 34.7062 97.2447 34.0474Z"
    fill="white" />
  <path
    d="M112.349 22.9907C113.08 22.6516 113.863 22.4816 114.697 22.4816C115.367 22.4816 116.009 22.6014 116.618 22.8409C117.228 23.0805 117.869 23.4698 118.54 24.0099L116.009 25.4783C115.521 25.2591 115.083 25.1489 114.697 25.1489C113.884 25.1489 113.213 25.4291 112.684 25.9874C112.115 26.5863 111.83 27.2761 111.83 28.0547V37.5829H109.208V28.0547C109.208 26.9767 109.487 25.9874 110.046 25.089C110.605 24.1906 111.373 23.4912 112.349 22.9917V22.9907Z"
    fill="white" />
  <path d="M121.307 22.6016H123.869V37.5821H121.307V22.6016Z" fill="white" />
  <path
    d="M122.558 17.6588C122.944 17.6588 123.274 17.7935 123.55 18.063C123.824 18.3325 123.961 18.6577 123.961 19.0363C123.961 19.4159 123.824 19.74 123.55 20.0095C123.275 20.279 122.944 20.4138 122.558 20.4138C122.171 20.4138 121.842 20.279 121.567 20.0095C121.293 19.74 121.156 19.4159 121.156 19.0363C121.156 18.6566 121.293 18.3325 121.567 18.063C121.842 17.7935 122.171 17.6588 122.558 17.6588Z"
    fill="white" />
  <path
    d="M132.113 16.3765H129.521V22.602H127.233V25.2982H129.521V37.5824H132.113V25.2982H134.4V22.602H132.113V16.3765Z"
    fill="white" />
  <path
    d="M140.448 31.2004C140.448 31.8998 140.625 32.5544 140.981 33.1629C141.337 33.7725 141.815 34.2559 142.415 34.6163C143.015 34.9757 143.67 35.1554 144.382 35.1554C145.094 35.1554 145.755 34.981 146.365 34.6313C146.974 34.2827 147.452 33.8025 147.798 33.1928C148.143 32.5832 148.316 31.9191 148.316 31.2004V22.6016H151V37.3125C151 38.212 150.832 39.0697 150.497 39.889C150.162 40.7082 149.689 41.4173 149.079 42.0162C148.448 42.6354 147.732 43.1145 146.928 43.4546C146.125 43.7937 145.276 43.9637 144.382 43.9637C143.223 43.9637 142.15 43.6739 141.164 43.0953C140.178 42.5156 139.319 41.6771 138.587 40.5788L140.966 39.2301C141.393 39.889 141.901 40.3938 142.491 40.7435C143.08 41.0921 143.712 41.2675 144.382 41.2675C145.46 41.2675 146.395 40.8782 147.188 40.0986C147.553 39.7392 147.833 39.32 148.026 38.8398C148.219 38.3606 148.315 37.8516 148.315 37.3115V36.2634C147.847 36.7425 147.258 37.1275 146.546 37.4173C145.834 37.7072 145.113 37.8516 144.381 37.8516C143.486 37.8516 142.642 37.6869 141.85 37.3575C141.057 37.0281 140.355 36.5639 139.746 35.9639C139.115 35.365 138.628 34.6709 138.281 33.8816C137.935 33.0934 137.763 32.2592 137.763 31.3801V22.6016H140.447V31.2004H140.448Z"
    fill="white" />
</svg>
