<svg width="163" height="60" viewBox="0 0 163 60" fill="none" xmlns="http://www.w3.org/2000/svg">
  <path fill-rule="evenodd" clip-rule="evenodd"
    d="M83.4263 31.866V17.9559L88.4176 13H100.941V24.3033H87.192V28.1269H100.94V31.866H83.4263ZM97.0871 20.4781V16.739H89.9939L87.192 19.521V20.4781H97.0871Z"
    fill="white" />
  <path
    d="M143.5 16.739H132.641L129.839 19.521V20.5671H143.499V31.8682H125.986V28.1292H139.734V24.3033H125.986V17.9559L131.065 13H143.5V16.739Z"
    fill="white" />
  <path
    d="M104.706 17.9559V31.866H108.559V19.521L111.274 16.739H118.367V31.8682H122.22V13H109.697L104.706 17.9559Z"
    fill="white" />
  <path fill-rule="evenodd" clip-rule="evenodd"
    d="M40.7797 46.9957V33.0857L45.771 28.2166H58.2937V39.5177H44.6329V43.2567H58.2937V46.9957H40.7797ZM54.5285 35.6073V31.782H47.4347L44.6329 34.564V35.6073H54.5285Z"
    fill="white" />
  <path
    d="M23.2657 29.3465V16.739H19.5V46.9973H23.2657V34.6507L26.0676 31.8687H33.1608V46.9973H37.0139V28.1291H24.4912L23.2657 29.3465Z"
    fill="white" />
  <path
    d="M79.5742 34.39V39.4332H75.8074V36.2161L70.8161 32.3903L65.9123 36.2161V39.4338H62.1466V34.3906L67.7503 30.0428L62.1466 25.6951V20.565H65.9123V23.7822L70.8173 27.608L75.8085 23.7822V20.565H79.5742V25.6945L73.9705 30.0423L79.5742 34.39Z"
    fill="white" />
  <path d="M65.9125 13H60.2208L54.5285 18.6519V24.3033H58.2942V20.2166L61.7966 16.739H65.9125V13Z"
    fill="white" />
  <path
    d="M79.9239 43.261L83.429 39.7807V35.6939H87.1919V41.3458L81.5002 47H75.8079V43.261H79.9239Z"
    fill="white" />
</svg>
