<svg width="163" height="60" viewBox="0 0 163 60" fill="none" xmlns="http://www.w3.org/2000/svg">
  <path d="M13.5 19H32.8441L29.5107 24.7237H13.5V19Z" fill="white" />
  <path fill-rule="evenodd" clip-rule="evenodd"
    d="M40.6941 29.7623C40.6941 33.0108 43.0704 35.4307 46.307 35.4307C49.5436 35.4307 51.9522 32.9777 51.9629 29.7623C51.9629 26.58 49.5651 24.0938 46.3285 24.0938C43.092 24.0938 40.6941 26.5468 40.6941 29.7623ZM49.8339 29.7623C49.8339 31.8948 48.3715 33.4528 46.3285 33.4528C44.264 33.4528 42.8016 31.8838 42.8016 29.7623C42.8016 27.6628 44.264 26.0717 46.3285 26.0717C48.3715 26.0717 49.8339 27.6739 49.8339 29.7623Z"
    fill="white" />
  <path fill-rule="evenodd" clip-rule="evenodd"
    d="M54.1242 27.0109V38.8119H56.1135V34.16H56.221C56.479 34.613 57.2425 35.4307 58.6618 35.4307C60.8554 35.4307 62.3823 33.6406 62.3823 31.0882C62.3823 28.5358 60.8446 26.812 58.5973 26.812C57.135 26.812 56.4038 27.7181 56.1887 28.0606H56.0812V27.0109H54.1242ZM60.3608 31.1324C60.3608 32.5799 59.4898 33.5964 58.2102 33.5964C56.9737 33.5964 56.0597 32.6572 56.0597 31.1324C56.0597 29.7512 56.8877 28.6683 58.1995 28.6683C59.4898 28.6683 60.3608 29.6297 60.3608 31.1324Z"
    fill="white" />
  <path fill-rule="evenodd" clip-rule="evenodd"
    d="M64.0059 31.1656C64.0059 33.6185 65.6833 35.4307 68.0489 35.4307C70.1242 35.4307 71.5651 34.3368 71.9522 32.6683H70.1027C69.8231 33.3423 69.0812 33.8064 68.1027 33.8064C66.8231 33.8064 65.9844 32.9666 65.9199 31.718H72.0274V31.0772C72.0274 28.7678 70.6296 26.812 68.0489 26.812C65.7049 26.812 64.0059 28.5689 64.0059 31.1656ZM70.1457 30.2816H65.9629C66.0812 29.254 66.9414 28.4363 68.0597 28.4363C69.2102 28.4363 70.0489 29.1766 70.1457 30.2816Z"
    fill="white" />
  <path
    d="M74.1672 27.0109V35.2318H76.1672V30.5247C76.1672 29.4971 76.8554 28.7126 77.8124 28.7126C78.7264 28.7126 79.35 29.3866 79.35 30.381V35.2207H81.3285V29.8507C81.3285 28.0938 80.221 26.801 78.4253 26.801C77.2855 26.801 76.4898 27.3977 76.1672 28.0054H76.0597V27.0109H74.1672Z"
    fill="white" />
  <path
    d="M83.2962 33.3754V35.2318H91.4145V33.4307H85.8339V33.3092L91.393 26.138V24.2927H83.5005V26.0938H88.8554V26.2043L83.2962 33.3754Z"
    fill="white" />
  <path fill-rule="evenodd" clip-rule="evenodd"
    d="M92.7371 31.1656C92.7371 33.6185 94.4145 35.4307 96.7801 35.4307C98.8554 35.4307 100.285 34.3368 100.683 32.6683H98.8339C98.5543 33.3423 97.8124 33.8064 96.8339 33.8064C95.5543 33.8064 94.7156 32.9666 94.6511 31.718H100.759V31.0772C100.759 28.7678 99.3608 26.812 96.7801 26.812C94.436 26.812 92.7371 28.5689 92.7371 31.1656ZM98.8769 30.2816H94.6941C94.8124 29.254 95.6726 28.4363 96.7909 28.4363C97.9414 28.4363 98.7801 29.1766 98.8769 30.2816Z"
    fill="white" />
  <path fill-rule="evenodd" clip-rule="evenodd"
    d="M102.898 27.0109V38.8119H104.888V34.16H104.995C105.253 34.613 106.017 35.4307 107.436 35.4307C109.63 35.4307 111.156 33.6406 111.156 31.0882C111.156 28.5358 109.619 26.812 107.372 26.812C105.909 26.812 105.178 27.7181 104.963 28.0606H104.855V27.0109H102.898ZM109.135 31.1324C109.135 32.5799 108.264 33.5964 106.984 33.5964C105.748 33.5964 104.834 32.6572 104.834 31.1324C104.834 29.7512 105.662 28.6683 106.974 28.6683C108.264 28.6683 109.135 29.6297 109.135 31.1324Z"
    fill="white" />
  <path fill-rule="evenodd" clip-rule="evenodd"
    d="M113.285 27.0109V38.8119H115.275V34.16H115.382C115.64 34.613 116.404 35.4307 117.823 35.4307C120.017 35.4307 121.544 33.6406 121.544 31.0882C121.544 28.5358 120.006 26.812 117.759 26.812C116.296 26.812 115.565 27.7181 115.35 28.0606H115.242V27.0109H113.285ZM119.533 31.1324C119.533 32.5799 118.662 33.5964 117.382 33.5964C116.146 33.5964 115.232 32.6572 115.232 31.1324C115.232 29.7512 116.06 28.6683 117.372 28.6683C118.662 28.6683 119.533 29.6297 119.533 31.1324Z"
    fill="white" />
  <path fill-rule="evenodd" clip-rule="evenodd"
    d="M123.178 31.1656C123.178 33.6185 124.855 35.4307 127.221 35.4307C129.296 35.4307 130.726 34.3368 131.124 32.6683H129.275C128.995 33.3423 128.253 33.8064 127.275 33.8064C125.995 33.8064 125.156 32.9666 125.092 31.718H131.199V31.0772C131.199 28.7678 129.802 26.812 127.221 26.812C124.877 26.812 123.178 28.5689 123.178 31.1656ZM129.307 30.2816H125.124C125.253 29.254 126.103 28.4363 127.221 28.4363C128.372 28.4363 129.21 29.1766 129.307 30.2816Z"
    fill="white" />
  <path
    d="M133.092 32.9224C133.092 34.3699 133.877 35.2318 135.285 35.2318H136.038V33.4528H135.716C135.296 33.4528 135.07 33.1987 135.07 32.7346V23.5192H133.092V32.9224Z"
    fill="white" />
  <path
    d="M137.705 24.7347C137.705 25.464 138.21 25.917 138.931 25.917C139.651 25.917 140.156 25.464 140.156 24.7347C140.156 24.0275 139.651 23.5634 138.931 23.5634C138.21 23.5634 137.705 24.0275 137.705 24.7347Z"
    fill="white" />
  <path d="M137.941 27.0109V35.2318H139.92V27.0109H137.941Z" fill="white" />
  <path
    d="M142.339 27.0109V35.2318H144.339V30.5247C144.339 29.4971 145.027 28.7126 145.984 28.7126C146.898 28.7126 147.522 29.3866 147.522 30.381V35.2207H149.5V29.8507C149.5 28.0938 148.392 26.801 146.597 26.801C145.458 26.801 144.662 27.3977 144.339 28.0054H144.232V27.0109H142.339Z"
    fill="white" />
  <path
    d="M20.7691 41H32.8444V35.2763H26.7691C25.1132 35.2763 23.5863 36.1603 22.7368 37.6188L20.7691 41Z"
    fill="white" />
  <path
    d="M25.564 25.3867C23.7576 25.3867 22.0801 26.3591 21.1554 27.9502L13.521 40.9998H20.0156L29.1554 25.3867H25.564Z"
    fill="white" />
</svg>
