<svg width="162" height="60" viewBox="0 0 162 60" fill="none" xmlns="http://www.w3.org/2000/svg">
  <path
    d="M105.548 20.001C106.138 20.0218 106.584 20.4834 106.576 21.0574C106.568 21.673 106.06 22.143 105.441 22.1097C104.851 22.0764 104.409 21.6272 104.413 21.0532C104.413 20.4418 104.921 19.976 105.552 20.001H105.548Z"
    fill="white" />
  <path
    d="M70.505 21.0407C70.4967 20.4668 70.0428 20.0134 69.4567 20.0009C68.817 19.9885 68.3259 20.4543 68.3341 21.0699C68.3424 21.6438 68.7964 22.093 69.3824 22.1138C70.0056 22.1346 70.5133 21.6521 70.505 21.0407Z"
    fill="white" />
  <path fill-rule="evenodd" clip-rule="evenodd"
    d="M9.34543 39.8449V33.7017C9.4606 33.6961 9.56363 33.69 9.65846 33.6845L9.65941 33.6844C9.84607 33.6734 10.0013 33.6643 10.1543 33.6643C10.6004 33.663 11.0468 33.6671 11.4933 33.6712H11.4941C12.456 33.6801 13.4182 33.6889 14.3764 33.6435C15.5031 33.5894 16.6504 33.5187 17.7358 33.2442C20.0181 32.6661 21.6731 31.2935 22.2178 28.8978C22.4036 28.0743 22.3912 27.1842 22.3499 26.3315C22.2798 24.9382 21.702 23.7403 20.6867 22.7712C19.3495 21.4985 17.7069 20.9245 15.9158 20.8663C14.0995 20.806 12.2833 20.8091 10.4671 20.8122C9.77817 20.8134 9.08924 20.8145 8.40033 20.8122C8.318 20.8122 8.23385 20.8361 8.14303 20.8619C8.09725 20.8749 8.04979 20.8884 8 20.8996V39.8449H9.34543ZM10.3396 32.4332H10.3379C10.0291 32.4311 9.71316 32.429 9.3867 32.429V22.1266C9.43779 22.116 9.48513 22.1042 9.53004 22.093C9.62666 22.0689 9.71208 22.0475 9.79941 22.0475L9.80559 22.0476C11.7928 22.0559 13.7841 22.0642 15.7713 22.0891C16.7494 22.1016 17.6904 22.3387 18.5406 22.7962C20.3689 23.7778 21.1448 25.3292 21.0086 27.5294C20.8394 30.2495 19.2752 31.8966 16.5637 32.2335C15.4958 32.3645 14.414 32.3832 13.3322 32.4019C12.9716 32.4082 12.611 32.4144 12.2509 32.4248C11.6247 32.4418 10.9983 32.4376 10.3396 32.4332Z"
    fill="white" />
  <path
    d="M86.9803 39.8574H88.2968L88.2927 39.8532V32.3999C88.2968 31.2477 88.4619 30.1206 89.0727 29.1224C90.2077 27.2757 91.9163 26.6476 94.0046 26.814C96.1135 26.9804 97.5044 28.2406 97.8015 30.3494C97.9047 31.0606 97.9418 31.7884 97.9501 32.5122C97.9634 33.8651 97.9613 35.218 97.9592 36.5709C97.958 37.3226 97.9569 38.0742 97.9584 38.8259C97.9584 39.0535 97.9757 39.2812 97.9933 39.5115C98.0014 39.6177 98.0096 39.7248 98.0161 39.8324H99.1841C99.1949 39.782 99.2062 39.7373 99.2164 39.6968L99.2167 39.6959C99.2376 39.613 99.2543 39.5471 99.2543 39.483C99.2531 38.6361 99.2561 37.7884 99.2591 36.9404C99.2665 34.8901 99.2738 32.8381 99.2212 30.7902C99.1552 28.1242 97.6158 26.2151 95.2015 25.716C94.4751 25.5621 93.6992 25.5704 92.9481 25.6078C91.0083 25.7035 89.4731 26.5769 88.3587 28.1782C88.2267 28.3654 88.0946 28.5484 87.8759 28.8479C87.2527 27.3173 86.2539 26.3191 84.8012 25.8657C83.4268 25.4373 82.0236 25.4498 80.6328 25.8283C79.1966 26.2192 78.1648 27.1842 77.3353 28.4195L77.1495 28.3072V25.6827H76.0146V39.8574H77.3022V38.7053C77.3096 37.9823 77.3122 37.2593 77.3148 36.5364V36.5345C77.3211 34.8087 77.3274 33.0832 77.3972 31.36C77.4591 29.8918 78.1235 28.6607 79.3163 27.7415C80.4925 26.8348 81.8297 26.71 83.2288 26.8348C84.9621 26.9929 86.2663 28.0576 86.6707 29.7629C86.8441 30.4908 86.9019 31.2602 86.9101 32.013C86.93 33.5995 86.9284 35.1879 86.9268 36.7769V36.7785C86.9261 37.5011 86.9253 38.2238 86.9266 38.9465C86.9266 39.1597 86.9434 39.3729 86.9604 39.5906C86.9673 39.6786 86.9743 39.7675 86.9803 39.8574Z"
    fill="white" />
  <path fill-rule="evenodd" clip-rule="evenodd"
    d="M38.4207 33.0982H26.287C26.3531 35.3608 27.3849 36.9455 29.2008 38.0352C31.4418 39.3786 34.1492 38.9586 36.8483 36.8789C37.067 37.116 37.2899 37.3573 37.5416 37.6276C36.935 38.5135 36.1054 39.0709 35.1892 39.4119C33.0885 40.1939 30.963 40.223 28.8871 39.2747C27.4591 38.6217 26.3696 37.586 25.7134 36.1636C24.6321 33.8011 24.6362 31.3971 25.8124 29.0845C27.1372 26.485 29.7703 25.0667 33.2082 25.7031C36.0724 26.2313 38.1896 28.7518 38.4166 31.7381C38.4358 32.006 38.4313 32.2758 38.4261 32.5876C38.4235 32.7453 38.4207 32.9138 38.4207 33.0982ZM37.1207 31.9835C37.1702 29.4963 34.9044 26.6181 31.6069 26.6971C28.2227 26.7762 26.188 29.854 26.3778 31.9835H37.1207Z"
    fill="white" />
  <path d="M51.4112 26.9415L51.413 26.9385V26.9427L51.4112 26.9415Z" fill="white" />
  <path
    d="M46.316 25.5826C48.1312 25.5577 49.8475 25.8694 51.4112 26.9415C51.3297 27.079 51.2536 27.2083 51.1781 27.3365C51.0671 27.5251 50.9577 27.711 50.8352 27.916C50.742 27.8724 50.6516 27.8329 50.5636 27.7944C50.4333 27.7375 50.3078 27.6827 50.1872 27.6207C48.4786 26.7015 46.6627 26.5309 44.7931 26.9136C43.5054 27.1756 42.6511 28.0865 42.5562 29.1679C42.4695 30.1703 42.8781 30.9439 43.7655 31.3681C44.4093 31.6759 45.115 31.8631 45.8084 32.0378C46.4229 32.1919 47.0459 32.3189 47.6687 32.4459C48.0204 32.5176 48.3721 32.5893 48.7221 32.6658C48.9573 32.7157 49.1843 32.7947 49.4113 32.8779C51.1736 33.5309 51.9536 34.5375 51.933 36.1138C51.9123 37.6943 50.9301 38.9837 49.2834 39.541C47.6532 40.09 45.9776 40.0776 44.3061 39.7864C43.2207 39.5951 42.1765 39.2499 41.252 38.626C41.1181 38.5341 40.998 38.4224 40.8712 38.3045C40.8144 38.2517 40.7562 38.1976 40.6949 38.1435C40.8269 37.9256 40.9493 37.7211 41.0778 37.5065L41.0786 37.5052L41.0791 37.5044C41.139 37.4043 41.2003 37.3021 41.2644 37.1952C41.4287 37.2822 41.5897 37.3699 41.7491 37.4566L41.7498 37.457C42.1387 37.6687 42.5179 37.8751 42.907 38.052C44.6156 38.8256 46.4068 39.0378 48.231 38.6343C48.8377 38.5012 49.4773 38.1851 49.9313 37.7609C51.0456 36.7252 50.7939 34.9534 49.4278 34.3004C48.7694 33.987 48.0421 33.8099 47.3202 33.6341C47.1416 33.5906 46.9633 33.5472 46.7865 33.5018C46.4211 33.4081 46.05 33.3384 45.6792 33.2687C45.3424 33.2054 45.0053 33.1421 44.6734 33.0609C44.2112 32.9486 43.7489 32.7947 43.3115 32.6076C42.0362 32.0627 41.2727 31.1227 41.2108 29.6961C41.153 28.3485 41.6936 27.2921 42.7956 26.5351C43.8521 25.8072 45.0614 25.5993 46.316 25.5826Z"
    fill="white" />
  <path
    d="M64.3885 26.9592C64.1986 27.2795 64.0253 27.5706 63.8189 27.9158C63.7502 27.8842 63.6833 27.8544 63.618 27.8254C63.4598 27.7549 63.3112 27.6888 63.171 27.6122C61.4582 26.7013 59.6382 26.535 57.7728 26.9176C57.3188 27.0133 56.8565 27.2462 56.481 27.529C55.0901 28.5688 55.2181 30.6235 56.7822 31.368C57.4604 31.6882 58.2065 31.8648 58.9517 32.0412C59.2132 32.1031 59.4748 32.165 59.7331 32.2331C60.084 32.3254 60.4395 32.3967 60.7948 32.468C61.1122 32.5318 61.4295 32.5955 61.743 32.674C62.1392 32.7738 62.5272 32.9235 62.9069 33.0857C64.1574 33.6223 64.8837 34.5498 64.9085 35.9431C64.9333 37.3282 64.3678 38.3971 63.1586 39.1125C62.1186 39.728 60.9878 39.9152 59.8033 39.9526C58.0245 40.0109 56.3159 39.753 54.727 38.8962C54.4835 38.765 54.2537 38.6044 54.0068 38.4319C53.8937 38.3529 53.7771 38.2714 53.6539 38.1891C53.8155 37.9256 53.9562 37.6936 54.0969 37.4618L54.0973 37.461L54.0981 37.4598L54.2688 37.1784C54.4532 37.2773 54.6294 37.3754 54.8011 37.4709L54.8022 37.4715C55.1643 37.673 55.5066 37.8634 55.8619 38.0269C57.5705 38.8089 59.3576 39.0334 61.19 38.6342C61.7719 38.5094 62.3827 38.2349 62.8326 37.8522C64.0624 36.7958 63.8231 34.9408 62.3621 34.2586C61.7198 33.9602 61.0132 33.7915 60.3113 33.624C60.1428 33.5837 59.9745 33.5436 59.8074 33.5017C59.4505 33.4102 59.0883 33.3415 58.7261 33.2729C58.3805 33.2074 58.0349 33.1419 57.6943 33.0566C57.1991 32.9319 56.708 32.7655 56.2333 32.57C53.5549 31.472 53.6457 27.9533 55.7092 26.6098C56.2994 26.2272 56.9927 25.9152 57.6778 25.778C59.8569 25.3329 61.9783 25.5534 63.9593 26.6514C64.0603 26.708 64.1518 26.778 64.2507 26.8537C64.2971 26.8892 64.3454 26.9262 64.3967 26.9634L64.3885 26.9592Z"
    fill="white" />
  <path
    d="M114.203 26.8677C116.159 26.5059 118.024 26.822 119.832 27.9533L119.84 27.9574C119.892 27.8823 119.939 27.8167 119.982 27.7568C120.056 27.6543 120.118 27.5684 120.17 27.4791C120.239 27.3646 120.299 27.2441 120.368 27.1069L120.369 27.1052C120.399 27.0438 120.432 26.9784 120.468 26.9093C118.321 25.5783 116.056 25.3122 113.695 25.7905C113.039 25.9236 112.374 26.2105 111.813 26.5766C109.712 27.9408 109.626 31.4345 112.255 32.5492C112.758 32.7613 113.286 32.936 113.815 33.0691C114.156 33.1545 114.501 33.219 114.847 33.2836C115.209 33.3511 115.571 33.4186 115.928 33.51C116.089 33.5512 116.251 33.5908 116.414 33.6304C117.121 33.803 117.833 33.9766 118.474 34.2878C119.89 34.9699 120.113 36.7625 118.936 37.819C118.52 38.1933 117.954 38.4844 117.409 38.6092C115.585 39.0335 113.79 38.8421 112.073 38.0852C111.679 37.9091 111.301 37.7049 110.912 37.4953C110.722 37.3929 110.529 37.2891 110.331 37.1868C110.206 37.3883 110.094 37.5746 109.975 37.7696C109.898 37.8965 109.819 38.0274 109.733 38.1683C109.831 38.2399 109.926 38.3126 110.018 38.384C110.233 38.5492 110.438 38.7077 110.666 38.8297C112.812 39.9859 115.102 40.1856 117.459 39.7655C118.02 39.6657 118.581 39.4411 119.093 39.1749C120.364 38.5136 120.992 37.4238 120.975 35.9847C120.959 34.4916 120.179 33.51 118.817 33.0358C118.19 32.817 117.541 32.6596 116.893 32.5021C116.543 32.4171 116.192 32.332 115.845 32.2373C115.557 32.1587 115.266 32.0889 114.974 32.0192C114.262 31.8488 113.55 31.6785 112.894 31.3805C111.314 30.6651 111.128 28.6146 112.519 27.5665C112.993 27.2088 113.617 26.9758 114.203 26.8677Z"
    fill="white" />
  <path
    d="M153.996 28.0908C153.591 28.3945 153.319 28.5983 152.976 28.852C151.615 27.1883 149.848 26.6018 147.772 26.8056C146.365 26.9429 145.213 27.5751 144.281 28.5941C142.18 30.89 142.209 34.8829 144.487 37.1663C146.464 39.1461 150.31 39.6743 152.997 36.7296C153.192 36.8693 153.393 37.0109 153.603 37.1586L153.897 37.3659C153.026 38.726 151.8 39.458 150.36 39.7658C148.391 40.1859 146.46 40.0445 144.702 38.934C142.473 37.5281 141.474 35.4444 141.441 32.849C141.392 29.2679 143.472 26.4604 146.823 25.7492C148.829 25.3208 150.797 25.4996 152.531 26.7474C152.864 26.9853 153.16 27.2759 153.489 27.599C153.649 27.756 153.816 27.9208 154 28.0908H153.996Z"
    fill="white" />
  <path
    d="M122.758 26.8137H125.276V28.1197C125.276 28.7699 125.275 29.42 125.274 30.0702L125.274 30.0939C125.271 31.8482 125.269 33.6025 125.284 35.3568C125.288 36.0056 125.329 36.6711 125.453 37.3075C125.651 38.3431 126.213 39.1833 127.207 39.5784C128.792 40.2106 130.356 40.1773 131.809 39.1666C131.86 39.1324 131.893 39.0708 131.929 39.0046C131.946 38.9743 131.963 38.943 131.982 38.9129C131.887 38.7593 131.794 38.6084 131.701 38.4556L131.694 38.4444C131.627 38.336 131.56 38.2266 131.491 38.1143C131.422 38.1538 131.357 38.1915 131.296 38.2276L131.295 38.2282C131.161 38.3061 131.041 38.3763 130.917 38.4388C128.582 39.5909 126.667 38.4221 126.65 35.8226C126.637 33.6792 126.642 31.5358 126.646 29.3924V29.3883C126.648 28.7755 126.649 28.1627 126.65 27.5499C126.65 27.395 126.675 27.2402 126.703 27.0595C126.717 26.9733 126.732 26.8812 126.745 26.7804H131.103V25.5909H126.613V22.5754H125.243V25.6491H122.758V26.8137Z"
    fill="white" />
  <path
    d="M137.042 25.6866V39.8571H135.808V25.6949C135.869 25.6885 135.93 25.6809 135.99 25.6733C136.126 25.6564 136.26 25.6396 136.394 25.6367C136.529 25.6367 136.663 25.6502 136.815 25.6653C136.886 25.6725 136.961 25.68 137.042 25.6866Z"
    fill="white" />
  <path d="M68.8045 39.8571H70.0179C70.2408 37.8149 70.15 26.3853 69.9189 25.6907H68.8045V39.8571Z"
    fill="white" />
  <path
    d="M106.084 39.8576H104.871V25.6871H105.998C106.217 26.3941 106.295 38.1232 106.084 39.8576Z"
    fill="white" />
  <path
    d="M135.329 20.9787C135.284 21.5402 135.709 22.0434 136.282 22.1058V22.11C136.897 22.1765 137.446 21.7356 137.5 21.1367C137.549 20.5669 137.124 20.0678 136.542 20.0137C135.903 19.9513 135.379 20.3672 135.329 20.9787Z"
    fill="white" />
</svg>
