<svg width="163" height="60" viewBox="0 0 163 60" fill="none" xmlns="http://www.w3.org/2000/svg">
  <path
    d="M18.2346 17.6056H30.8157V13.8857H16.9939C16.3357 13.8857 15.7046 14.147 15.2392 14.6121C14.7738 15.0772 14.5124 15.708 14.5124 16.3657V31.2452H18.2346V17.6056Z"
    fill="white" />
  <path
    d="M35.2701 13.8864V17.6063H40.5555L14.5 42.6908V46.4107H44.5508C45.2088 46.4107 45.8401 46.1493 46.3054 45.6844C46.7708 45.2193 47.0323 44.5884 47.0323 43.9308V30.1175H43.3101V42.6908H19.8848L43.3224 20.111V25.6661H47.0446V16.4883C47.0446 15.0513 45.8797 13.8864 44.4427 13.8864H35.2701Z"
    fill="white" />
  <path
    d="M63.4281 21.111V22.5887C63.42 22.8941 63.4738 23.198 63.5861 23.4818C63.6985 23.7656 63.8671 24.0234 64.0818 24.2395C64.2963 24.4555 64.5524 24.6253 64.8343 24.7385C65.1161 24.8516 65.4179 24.9058 65.7213 24.8976H72.4357L62.8961 35.5299V39.095H78.3062V35.1901H68.5538L78.0347 24.9642V21.111H63.4281Z"
    fill="white" />
  <path fill-rule="evenodd" clip-rule="evenodd"
    d="M95.8335 30.1652C95.8335 36.368 93.0926 39.5045 87.6771 39.5045C82.2615 39.5045 79.5537 36.368 79.5537 30.1652C79.5537 23.8849 82.2615 20.7927 87.6771 20.7927C93.0926 20.7927 95.8335 23.8959 95.8335 30.1652ZM84.1216 30.1652C84.1583 33.6748 85.3399 35.4481 87.644 35.4481C89.9482 35.4481 91.0967 33.6009 91.1297 30.0285C91.1297 26.5189 89.9776 24.7826 87.6771 24.7826C85.3068 24.7826 84.1216 26.5854 84.1216 30.1652Z"
    fill="white" />
  <path
    d="M101.997 27.7603V17.4162C101.994 16.8181 101.759 16.2448 101.344 15.8174C100.928 15.39 100.364 15.142 99.7703 15.1257H97.356V39.0798H101.997V32.2785C101.998 32.0526 102.086 31.8357 102.242 31.6733C102.397 31.5108 102.61 31.4153 102.834 31.4067C103.593 31.4067 103.92 31.9349 104.518 32.9915L107.82 39.1241H113.441L106.965 28.0411L113.372 21.1327H107.736L101.997 27.7603Z"
    fill="white" />
  <path
    d="M117.507 42.2904C119.969 42.2904 120.846 41.0676 120.138 38.6885L114.065 21.1256H119.158L122.699 33.5939L125.803 22.7252C126.074 21.6723 126.782 21.1256 127.931 21.1256H131.068L124.012 42.1538C122.934 45.1092 121.855 46.1251 118.142 46.1251C116.997 46.1251 116.388 46.0919 116.252 45.9921V42.2978L117.507 42.2904Z"
    fill="white" />
  <path fill-rule="evenodd" clip-rule="evenodd"
    d="M140.34 39.5045C145.755 39.5045 148.5 36.368 148.5 30.1652C148.5 23.8959 145.752 20.7927 140.34 20.7927C134.928 20.7927 132.22 23.8849 132.22 30.1652C132.22 36.368 134.924 39.5045 140.34 39.5045ZM140.307 35.4481C138.006 35.4481 136.821 33.6748 136.788 30.1652C136.788 26.5854 137.973 24.7826 140.34 24.7826C142.644 24.7826 143.792 26.5189 143.792 30.0285C143.759 33.6009 142.607 35.4481 140.307 35.4481Z"
    fill="white" />
  <path
    d="M64.5496 43.1701C64.3862 43.0591 64.1913 43.0035 63.994 43.0119C63.9033 43.0115 63.8129 43.0206 63.7242 43.039C63.6405 43.0558 63.5605 43.0869 63.4875 43.131C63.4195 43.1732 63.363 43.2317 63.3233 43.3012C63.2792 43.3832 63.2578 43.4754 63.2611 43.5684C63.2592 43.6132 63.2661 43.6578 63.2814 43.6998C63.2968 43.742 63.3202 43.7806 63.3505 43.8135C63.4177 43.8816 63.4991 43.9339 63.5889 43.9668C63.6991 44.0101 63.813 44.0431 63.9292 44.0654C64.0543 44.091 64.1846 44.1191 64.3114 44.1506C64.4381 44.1821 64.5667 44.2169 64.6943 44.2578C64.8158 44.2971 64.9306 44.3545 65.0348 44.428C65.133 44.4977 65.2144 44.5884 65.2731 44.6935C65.3366 44.8274 65.3673 44.9744 65.3623 45.1224C65.3575 45.2705 65.3172 45.4153 65.245 45.5446C65.169 45.6665 65.0666 45.7698 64.9454 45.8467C64.8198 45.9267 64.6813 45.9843 64.5361 46.017C64.2161 46.0922 63.8825 46.087 63.5649 46.0016C63.4096 45.9595 63.2635 45.8884 63.1343 45.7923C63.0097 45.6985 62.9094 45.5762 62.8416 45.4357C62.7672 45.2759 62.7305 45.1012 62.7344 44.9251H63.1463C63.1426 45.0405 63.1672 45.1552 63.2179 45.259C63.2687 45.3628 63.344 45.4526 63.4373 45.5208C63.5288 45.5866 63.6319 45.6346 63.7412 45.6621C63.8578 45.6928 63.978 45.7083 64.0986 45.708C64.1977 45.7081 64.2966 45.699 64.3939 45.6808C64.4876 45.6636 64.578 45.6321 64.662 45.5871C64.74 45.5437 64.8058 45.4814 64.8535 45.4059C64.9061 45.3176 64.9317 45.2158 64.9276 45.1131C64.9334 45.0142 64.9031 44.9165 64.8425 44.8382C64.777 44.7641 64.6955 44.7059 64.6041 44.668C64.496 44.6209 64.3834 44.585 64.268 44.5608L63.885 44.4757C63.7556 44.4467 63.6297 44.4135 63.5029 44.3753C63.3832 44.3404 63.2687 44.2898 63.1624 44.2246C63.065 44.1636 62.9834 44.0805 62.9242 43.982C62.8608 43.8679 62.83 43.7387 62.8348 43.6085C62.8317 43.4603 62.8662 43.3139 62.9353 43.1829C63.0006 43.0644 63.0923 42.9624 63.2032 42.885C63.3193 42.8068 63.4481 42.7492 63.5837 42.7148C63.7261 42.6766 63.8729 42.6573 64.0203 42.6577C64.1779 42.6564 64.3351 42.6761 64.4876 42.7165C64.625 42.753 64.7535 42.817 64.8654 42.9045C64.974 42.9912 65.0614 43.1015 65.1208 43.2272C65.1872 43.3731 65.2222 43.5315 65.2237 43.6919H64.805C64.782 43.445 64.6978 43.2748 64.5496 43.1701Z"
    fill="white" />
  <path
    d="M68.1397 43.0892V42.7225H65.8827V45.9914H68.1534V45.6245H66.3176V44.4944H68.0198V44.1284H66.3176V43.0892H68.1397Z"
    fill="white" />
  <path
    d="M70.6562 43.185C70.4802 43.0675 70.2719 43.0081 70.0604 43.0148C69.8868 43.0099 69.7147 43.0476 69.5591 43.1246C69.4246 43.1958 69.3082 43.2968 69.2187 43.42C69.1265 43.5482 69.059 43.6925 69.0196 43.8455C68.9767 44.0066 68.9552 44.1724 68.9557 44.3391C68.9547 44.5176 68.9762 44.6954 69.0196 44.8685C69.058 45.0247 69.1255 45.1722 69.2187 45.3034C69.3095 45.4272 69.4278 45.5283 69.5642 45.5987C69.7208 45.6755 69.8937 45.7132 70.0681 45.7085C70.1989 45.7108 70.3289 45.6868 70.4501 45.6379C70.5588 45.5923 70.657 45.5252 70.7387 45.4404C70.8216 45.3542 70.8864 45.2524 70.9293 45.1408C70.977 45.0209 71.0057 44.8942 71.0145 44.7656H71.4434C71.4 45.1774 71.2587 45.4983 71.0179 45.7272C70.777 45.9562 70.4468 46.0676 70.0289 46.0676C69.8008 46.0726 69.5743 46.0281 69.3651 45.9375C69.1822 45.8554 69.0209 45.7322 68.8935 45.5774C68.7649 45.418 68.6691 45.2346 68.6119 45.0378C68.5483 44.8206 68.5168 44.5953 68.5183 44.3689C68.5166 44.1415 68.5505 43.9152 68.6186 43.6982C68.6811 43.4985 68.7814 43.3128 68.914 43.151C69.0468 42.9932 69.2132 42.867 69.4008 42.7817C69.6104 42.6886 69.8379 42.6426 70.0673 42.6472C70.2317 42.646 70.3954 42.6689 70.5532 42.7152C70.6995 42.7583 70.8372 42.8266 70.96 42.917C71.0803 43.0066 71.1817 43.1196 71.2579 43.2489C71.34 43.3904 71.3931 43.5469 71.4137 43.7093H70.9787C70.9439 43.4991 70.8281 43.3109 70.6562 43.185Z"
    fill="white" />
  <path
    d="M73.3089 46.0645C73.7208 46.0645 74.0383 45.9607 74.2612 45.7505C74.4833 45.5421 74.5923 45.2288 74.5923 44.8101V42.7225H74.1599V44.8101C74.1599 45.1029 74.0876 45.3258 73.9429 45.4765C73.7982 45.6271 73.5863 45.7029 73.3089 45.7029C73.0156 45.7034 72.7911 45.6279 72.6357 45.4765C72.4802 45.3249 72.4025 45.1029 72.4025 44.8101V42.7225H71.9676V44.8101C71.9676 45.2467 72.085 45.565 72.3216 45.7651C72.5583 45.965 72.8969 46.0645 73.3089 46.0645Z"
    fill="white" />
  <path fill-rule="evenodd" clip-rule="evenodd"
    d="M76.8301 42.7225C77.141 42.7225 77.3845 42.7987 77.5603 42.9513C77.6482 43.0296 77.7174 43.1267 77.7629 43.2352C77.8083 43.3437 77.829 43.461 77.8233 43.5786C77.8273 43.7617 77.7805 43.9423 77.688 44.1003C77.59 44.2558 77.4347 44.3662 77.2557 44.4075V44.4169C77.3383 44.43 77.417 44.4611 77.4863 44.5079C77.5442 44.5481 77.5927 44.6004 77.6284 44.6612C77.6644 44.7232 77.6908 44.7904 77.7067 44.8604C77.7241 44.9358 77.7369 45.0122 77.7449 45.0892C77.7518 45.1684 77.756 45.2501 77.7595 45.3318C77.7619 45.413 77.7695 45.4941 77.7824 45.5743C77.794 45.6513 77.8113 45.7273 77.8343 45.8016C77.8562 45.8711 77.8914 45.9355 77.9381 45.9914H77.4522C77.4191 45.9525 77.3977 45.905 77.391 45.8543C77.3792 45.79 77.3724 45.7249 77.3705 45.6594C77.3705 45.617 77.3681 45.5724 77.3657 45.526C77.364 45.4944 77.3622 45.462 77.3612 45.4289C77.3579 45.347 77.3485 45.2657 77.3331 45.1855C77.3211 45.1062 77.3059 45.0305 77.2879 44.959C77.2722 44.8917 77.2432 44.8281 77.2028 44.7718C77.1624 44.7167 77.1089 44.6726 77.0471 44.6432C76.9668 44.6077 76.8795 44.5911 76.7917 44.5948H75.7296V45.9914H75.2947V42.7225H76.8301ZM76.9212 44.2058C77.0064 44.1941 77.0883 44.1652 77.162 44.1208C77.2309 44.0759 77.2874 44.0145 77.3263 43.942C77.3776 43.8304 77.3976 43.707 77.3845 43.5849C77.3712 43.4627 77.3253 43.3465 77.2514 43.2483C77.1595 43.1452 77.0113 43.0935 76.8071 43.0935H75.7262V44.228H76.6352C76.731 44.2285 76.8266 44.2211 76.9212 44.2058Z"
    fill="white" />
  <path
    d="M80.6844 43.0892V42.7225H78.4274V45.9914H80.6981V45.6245H78.8623V44.4944H80.5645V44.1284H78.8623V43.0892H80.6844Z"
    fill="white" />
  <path
    d="M81.7557 45.4839V45.946C81.76 46.1038 81.7187 46.2597 81.6367 46.3946C81.5459 46.5278 81.4088 46.6225 81.252 46.6601V46.4312C81.301 46.4149 81.3458 46.3878 81.383 46.3521C81.417 46.3181 81.4456 46.2793 81.4681 46.237C81.4888 46.1975 81.5033 46.1551 81.5116 46.1111C81.5191 46.072 81.5214 46.0319 81.5183 45.9919H81.2485V45.4813L81.7557 45.4839Z"
    fill="white" />
  <path fill-rule="evenodd" clip-rule="evenodd"
    d="M85.1822 42.7225H83.7745V45.9871H85.354C85.4999 45.9899 85.6447 45.9625 85.7796 45.9071C85.8963 45.8579 86.0022 45.7863 86.0912 45.6961C86.1742 45.6102 86.2388 45.5082 86.2808 45.3965C86.3231 45.2853 86.3447 45.1674 86.3447 45.0483C86.3498 44.8652 86.2935 44.6854 86.1847 44.5377C86.0698 44.3923 85.9053 44.2943 85.7226 44.2628V44.2535C85.8687 44.1996 85.9942 44.1014 86.0818 43.9727C86.1675 43.8378 86.2107 43.6804 86.206 43.5207C86.2109 43.3739 86.1717 43.2289 86.0936 43.1046C86.024 42.9966 85.931 42.9059 85.8213 42.839C85.767 42.8061 85.7074 42.7827 85.6452 42.7701C85.5718 42.7542 85.4977 42.7429 85.423 42.736C85.3439 42.7283 85.2673 42.7225 85.1822 42.7225ZM85.6085 43.9973C85.5004 44.0841 85.3225 44.1284 85.075 44.1284H84.2094V43.0892H85.075C85.1645 43.089 85.254 43.094 85.343 43.1046C85.421 43.1137 85.4965 43.138 85.5652 43.176C85.6291 43.2127 85.6812 43.2667 85.7158 43.3318C85.7566 43.4172 85.7755 43.5114 85.7711 43.6058C85.7763 43.6792 85.7644 43.7528 85.7363 43.8209C85.708 43.8888 85.6643 43.9493 85.6085 43.9973ZM85.7456 45.4697C85.6216 45.5789 85.4594 45.6346 85.2944 45.6245L84.2094 45.6229V44.4927H85.1983C85.2877 44.4924 85.3769 44.501 85.4647 44.5182C85.5449 44.5321 85.6216 44.5609 85.6911 44.6033C85.7576 44.6453 85.8118 44.704 85.8485 44.7734C85.8911 44.8554 85.9116 44.9469 85.9081 45.039C85.9127 45.1182 85.9006 45.1974 85.8725 45.2716C85.8445 45.3457 85.8013 45.4133 85.7456 45.4697Z"
    fill="white" />
  <path
    d="M89.1813 45.7505C88.9592 45.9607 88.6417 46.0645 88.229 46.0645C87.8162 46.0645 87.4791 45.965 87.2426 45.7651C87.006 45.565 86.8885 45.2467 86.8885 44.8101V42.7225H87.3226V44.8101C87.3226 45.1029 87.4005 45.3249 87.5567 45.4765C87.7115 45.6271 87.9361 45.7029 88.229 45.7029C88.507 45.7029 88.7183 45.6274 88.863 45.4765C89.0076 45.3256 89.0804 45.1034 89.0809 44.8101V42.7225H89.5158V44.8101C89.5158 45.2288 89.4043 45.5423 89.1813 45.7505Z"
    fill="white" />
  <path d="M90.666 45.9914V42.7225H90.2301V45.9914H90.666Z" fill="white" />
  <path d="M91.8326 42.7225V45.6245H93.5637V45.9914H91.3977V42.7225H91.8326Z" fill="white" />
  <path fill-rule="evenodd" clip-rule="evenodd"
    d="M96.2284 43.1072C95.9567 42.8506 95.5691 42.7225 95.0659 42.7225H93.9425V45.9914H95.065C95.305 45.9966 95.5439 45.9577 95.7697 45.8765C95.9574 45.8079 96.1255 45.6941 96.259 45.5454C96.3926 45.3901 96.4898 45.2069 96.5433 45.0092C96.6079 44.7714 96.6389 44.5255 96.6353 44.2791C96.6358 43.7541 96.5002 43.3636 96.2284 43.1072ZM95.2846 45.6135C95.2238 45.6204 95.1628 45.624 95.1017 45.6245L94.3722 45.6238V43.0884H95.105C95.2791 43.0834 95.4525 43.1122 95.6157 43.1735C95.7484 43.2253 95.8656 43.3102 95.9561 43.4203C96.0463 43.5365 96.1102 43.671 96.1433 43.8144C96.1837 43.9861 96.2032 44.1621 96.2012 44.3385C96.2044 44.5122 96.1835 44.6855 96.1391 44.8535C96.1047 44.9791 96.0514 45.0988 95.9807 45.2084C95.9235 45.2966 95.8499 45.3728 95.7637 45.433C95.6878 45.4853 95.6054 45.5276 95.5186 45.559C95.4432 45.5867 95.3646 45.605 95.2846 45.6135Z"
    fill="white" />
  <path
    d="M97.6974 45.4839V45.946C97.702 46.1038 97.661 46.2596 97.5791 46.3946C97.4881 46.5278 97.3506 46.6225 97.1935 46.6601V46.4312C97.2428 46.4153 97.2877 46.3882 97.3247 46.3521C97.3588 46.3184 97.3875 46.2796 97.4098 46.237C97.4311 46.1978 97.4459 46.1552 97.454 46.1111C97.4608 46.0718 97.4631 46.0319 97.4608 45.9919H97.1902V45.4813L97.6974 45.4839Z"
    fill="white" />
  <path d="M100.166 45.9914V42.7225H99.7299V45.9914H100.166Z" fill="white" />
  <path
    d="M101.356 42.7225L103.078 45.3735H103.086V42.7225H103.498V45.9914H103.022L101.316 43.3684H101.308V45.9914H100.89V42.7225H101.356Z"
    fill="white" />
  <path
    d="M103.846 42.7225L104.995 45.9914H105.486L106.656 42.7225H106.202L105.259 45.5565H105.25L104.313 42.7225H103.846Z"
    fill="white" />
  <path
    d="M109.258 42.7225V43.0892H107.436V44.1284H109.134V44.4944H107.436V45.6245H109.272V45.9914H107V42.7225H109.258Z"
    fill="white" />
  <path
    d="M110.879 43.0112C111.076 43.0029 111.271 43.0584 111.434 43.1695C111.58 43.2741 111.664 43.4444 111.692 43.6861H112.104C112.103 43.5257 112.068 43.3674 112.001 43.2214C111.942 43.0958 111.855 42.9854 111.746 42.8988C111.634 42.8115 111.505 42.7476 111.368 42.7108C111.216 42.6706 111.059 42.6508 110.902 42.652C110.754 42.6516 110.606 42.6709 110.463 42.7091C110.328 42.7436 110.2 42.8012 110.084 42.8793C109.973 42.9567 109.881 43.0587 109.816 43.1772C109.747 43.3082 109.712 43.4546 109.715 43.6026C109.709 43.7326 109.739 43.8618 109.8 43.9763C109.86 44.0747 109.941 44.1579 110.039 44.2189C110.145 44.2841 110.26 44.3347 110.379 44.3695C110.507 44.4078 110.632 44.441 110.762 44.47L111.143 44.5551C111.26 44.5789 111.374 44.6148 111.484 44.6623C111.575 44.7004 111.656 44.7585 111.722 44.8324C111.783 44.911 111.813 45.0085 111.807 45.1073C111.813 45.2036 111.791 45.2995 111.744 45.3835C111.697 45.4677 111.626 45.5364 111.541 45.5814C111.457 45.6265 111.367 45.658 111.274 45.6751C111.178 45.6961 111.081 45.7084 110.983 45.7116C110.862 45.7119 110.742 45.6964 110.625 45.6657C110.516 45.6383 110.413 45.5902 110.321 45.5244C110.233 45.4596 110.161 45.3758 110.11 45.2793C110.054 45.1695 110.027 45.0475 110.03 44.9244H109.618C109.614 45.1006 109.651 45.2753 109.726 45.435C109.793 45.5758 109.894 45.6981 110.019 45.7916C110.147 45.8874 110.291 45.9584 110.445 46.001C110.762 46.0863 111.096 46.0915 111.416 46.0163C111.561 45.9835 111.699 45.9259 111.825 45.8461C111.947 45.7691 112.049 45.666 112.125 45.5439C112.197 45.4145 112.237 45.2697 112.242 45.1218C112.247 44.9737 112.216 44.8267 112.153 44.693C112.094 44.5878 112.013 44.497 111.914 44.4273C111.81 44.3539 111.695 44.2964 111.574 44.2571C111.447 44.2163 111.319 44.1814 111.192 44.1499C111.065 44.1185 110.935 44.0904 110.81 44.0649C110.694 44.0425 110.58 44.0094 110.469 43.9661C110.38 43.9332 110.298 43.8809 110.231 43.8129C110.171 43.7456 110.141 43.6575 110.146 43.5678C110.143 43.4747 110.164 43.3825 110.208 43.3005C110.248 43.2311 110.304 43.1725 110.372 43.1304C110.445 43.0863 110.525 43.0552 110.608 43.0384C110.697 43.0199 110.788 43.0108 110.879 43.0112Z"
    fill="white" />
  <path d="M112.417 43.0892V42.7225H115.031V43.0892H113.941V45.9914H113.506V43.0892H112.417Z"
    fill="white" />
  <path d="M115.416 45.9945V45.4839H114.905V45.9945H115.416Z" fill="white" />
</svg>
