<svg width="32" height="32" viewBox="0 0 32 32" fill="none" xmlns="http://www.w3.org/2000/svg">
<path d="M8.5 6H13.0023C13.968 6 14.9012 6.34939 15.6294 6.98367L28.7917 18.4477C29.4827 19.0495 29.6195 20.0707 29.1112 20.8332V20.8332C28.5152 21.7272 27.2791 21.9143 26.4452 21.2368L20 16L25.1817 20.3294C25.8695 20.9041 26.0398 21.8923 25.5841 22.664V22.664C25.014 23.6295 23.7176 23.8598 22.8498 23.1498L19 20L22.2856 22.7119C22.9691 23.2761 23.0986 24.2734 22.5817 24.9934V24.9934C22.0019 25.801 20.8524 25.9333 20.1042 25.2787L17.5 23L18.8088 24.1452C19.4678 24.7218 19.5374 25.7224 18.9646 26.3847V26.3847C18.4203 27.014 17.4833 27.1181 16.8142 26.6235L7.09791 19.4419C6.70269 19.1498 6.36468 18.7874 6.10083 18.3727L3 13.5" stroke="white" stroke-width="2" stroke-linecap="round" stroke-linejoin="round"/>
<path d="M10 8.49992C10 10.0999 9.33333 11.8332 9 12.4999C10.5 14.9998 14 13 14.5 10.5C15.5 8 19 10 20 9.5C21.8333 11 25 14 28 16.5C28.4 14.9 30.6667 14.1667 31.5 14C30.8333 12.6667 28.9 8.9 26.5 4.5C24.5 5.5 20.5 4.49992 17.5 3.99992C14.5 3.49992 10 6.49992 10 8.49992Z" fill="#B62FF5"/>
<path fill-rule="evenodd" clip-rule="evenodd" d="M3.36652 18.2715C2.61184 19.078 2.65388 20.3436 3.46044 21.0983C4.25133 21.8384 5.48364 21.8123 6.24277 21.0505C6.02604 21.758 6.21189 22.5587 6.78856 23.0983C7.45331 23.7203 8.4299 23.8011 9.17526 23.3588C8.92197 24.0092 9.07204 24.7765 9.61291 25.2826C10.211 25.8422 11.0961 25.9039 11.757 25.4844C11.823 25.8412 11.9995 26.1807 12.2848 26.4476C12.9943 27.1116 14.1077 27.0746 14.7717 26.365L15.4042 25.689C16.0681 24.9794 16.0311 23.866 15.3216 23.2021C14.8838 22.7925 14.2923 22.6497 13.7474 22.767C13.7535 22.2896 13.5664 21.8114 13.1902 21.4594C12.6454 20.9496 11.8624 20.8531 11.2276 21.157C11.6083 20.387 11.46 19.428 10.8004 18.8108C10.1678 18.2189 9.25283 18.1171 8.52344 18.4898C8.90364 17.7199 8.75523 16.7613 8.09583 16.1444C7.28927 15.3897 6.02364 15.4317 5.26896 16.2383L3.36652 18.2715Z" fill="#B62FF5"/>
</svg>
