<svg width="143" height="56" viewBox="0 0 143 56" fill="none" xmlns="http://www.w3.org/2000/svg">
<g clip-path="url(#clip0_30404_4593)">
<path d="M41.2784 8.28428C41.2784 8.28428 43.471 8.37178 45.7513 8.63428C40.6206 4.60928 35.753 3.42803 31.8063 3.42803C26.3686 3.42803 22.685 5.65928 22.4658 5.79053L24.176 3.07803C24.176 3.07803 17.335 2.42178 14.9232 9.64053C14.3092 8.10928 13.7392 5.87803 13.7392 5.87803C13.7392 5.87803 10.1871 8.98428 11.8535 14.1468C7.77525 12.6593 1.94291 10.603 1.72364 10.5593C1.41668 10.5155 1.32897 10.6468 1.32897 10.6468C1.32897 10.6468 1.24127 10.778 1.50438 10.9968C1.98676 11.3905 11.1957 18.1718 13.2129 19.4843C12.7744 21.0593 12.7744 21.803 13.2129 22.5468C13.8269 23.553 13.8707 24.078 13.783 24.8218C13.6953 25.5655 12.906 31.9968 12.7306 32.7843C12.5551 33.5718 10.7134 36.3718 10.8011 37.203C10.8888 38.0343 12.0289 41.578 13.0375 41.9718C13.783 42.2343 15.6248 42.803 16.8527 42.803C17.2912 42.803 17.6859 42.7155 17.8613 42.5405C18.6068 41.8843 18.826 41.753 19.3522 41.753C19.3961 41.753 19.4399 41.753 19.4838 41.753C19.7031 41.753 19.9662 41.7968 20.2731 41.7968C20.9748 41.7968 21.8957 41.6655 22.5535 41.053C23.5182 40.0905 25.1846 38.778 25.7108 38.1655C26.3686 37.3343 26.7194 36.1968 26.544 35.0593C26.4125 34.0093 26.9825 33.0905 27.6403 32.1718C28.4735 31.078 30.0083 29.1093 30.0083 29.1093C33.0341 31.3843 34.9198 34.8405 34.9198 38.6905C34.9198 45.5155 28.9559 51.028 21.5887 51.028C20.4485 51.028 19.3522 50.8968 18.2559 50.6343C21.6326 51.8155 24.483 52.2093 26.8071 52.2093C31.7624 52.2093 34.3936 50.4155 34.3936 50.4155C34.3936 50.4155 33.4727 51.5968 31.9817 52.953C32.0255 52.953 32.0255 52.953 32.0255 52.953C40.2259 51.8155 44.2165 45.078 44.2165 45.078C44.2165 45.078 43.9095 47.2655 43.5148 48.753C54.434 40.5718 52.5922 30.3343 52.5484 29.9843C52.6361 30.1155 53.7324 31.428 54.3025 32.128C56.0566 14.103 41.2784 8.28428 41.2784 8.28428Z" fill="#0A192B"/>
<path d="M43.8201 9.04808C43.7551 9.00848 43.6911 8.96991 43.628 8.93236C44.2637 8.98291 44.9749 9.04821 45.6941 9.131C45.9164 9.1566 46.1287 9.03134 46.2138 8.82434C46.2988 8.61734 46.236 8.37902 46.0599 8.24089C40.8382 4.14454 35.8611 2.92803 31.8063 2.92803C28.2935 2.92803 25.4939 3.83625 23.8423 4.54476L24.5989 3.3447C24.6915 3.19787 24.7013 3.01353 24.6248 2.85771C24.5483 2.7019 24.3965 2.59689 24.2237 2.58032L24.176 3.07803C24.2237 2.58032 24.2234 2.58029 24.2231 2.58026L24.2224 2.58019L24.2204 2.58L24.2145 2.57948L24.1954 2.5779C24.1794 2.57665 24.157 2.57503 24.1285 2.57332C24.0716 2.5699 23.9903 2.5661 23.8874 2.56403C23.6816 2.55991 23.389 2.56273 23.0318 2.58971C22.3185 2.64356 21.3408 2.79421 20.2818 3.18286C18.401 3.87307 16.284 5.30891 14.945 8.22276C14.8114 7.81544 14.6874 7.40883 14.5808 7.04463C14.4723 6.67398 14.3828 6.3506 14.3205 6.12007C14.2893 6.00485 14.265 5.91293 14.2485 5.85004L14.2298 5.77822L14.2251 5.75998L14.2239 5.75553L14.2237 5.75449L14.2236 5.75427L14.2236 5.75426C14.2236 5.75425 14.2236 5.75425 14.2236 5.75424C14.1806 5.58595 14.0533 5.45203 13.8874 5.40052C13.7215 5.34901 13.5408 5.3873 13.41 5.50165L13.7392 5.87803C13.41 5.50165 13.4098 5.50183 13.4096 5.50203L13.4091 5.50248L13.4078 5.50359L13.4043 5.50668L13.3936 5.51634C13.3847 5.52431 13.3727 5.53535 13.3577 5.54943C13.3277 5.57758 13.2857 5.61792 13.2341 5.67019C13.1309 5.77468 12.9885 5.9272 12.8246 6.12575C12.4972 6.52233 12.0812 7.10602 11.7203 7.86083C11.0816 9.19693 10.6206 11.0624 11.1198 13.348C9.28063 12.6813 7.21737 11.9446 5.50813 11.3402C4.50996 10.9873 3.63182 10.6793 2.9891 10.4567C2.66791 10.3454 2.40446 10.2551 2.21386 10.191C2.11876 10.1591 2.0402 10.1331 1.981 10.1142L1.98099 10.1142C1.93678 10.1001 1.86942 10.0785 1.82148 10.069C1.81243 10.0671 1.80333 10.0656 1.79419 10.0643C1.56286 10.0313 1.36562 10.0583 1.2047 10.1313C1.12602 10.1669 1.06322 10.2105 1.01451 10.254C0.990383 10.2755 0.970171 10.2966 0.953435 10.3162C0.945073 10.3259 0.937586 10.3353 0.930912 10.3442L0.921499 10.357L0.917232 10.3631L0.915205 10.3661L0.914218 10.3675L0.913731 10.3683C0.91349 10.3686 0.913249 10.369 1.32897 10.6468C0.913248 10.369 0.912955 10.3694 0.912662 10.3699L0.912074 10.3708L0.910891 10.3725L0.908502 10.3762L0.903635 10.3839C0.900355 10.3892 0.897005 10.3948 0.893618 10.4008C0.886847 10.4127 0.8799 10.4259 0.873064 10.4405C0.859392 10.4696 0.846086 10.5043 0.835645 10.5442C0.814265 10.626 0.806734 10.7231 0.826113 10.8294C0.865147 11.0436 0.998567 11.2265 1.18473 11.3813L1.18472 11.3813L1.18821 11.3841C1.66308 11.7718 10.1255 18.0048 12.637 19.7018C12.2811 21.0903 12.2756 21.9414 12.7822 22.8007L12.7822 22.8008L12.7861 22.8072C13.0769 23.2838 13.2121 23.6135 13.2727 23.8898C13.3323 24.1616 13.3274 24.4156 13.2864 24.7632C13.2428 25.133 13.0238 26.925 12.7937 28.7232C12.5612 30.5405 12.3237 32.3111 12.2425 32.6756C12.2149 32.7995 12.0997 33.0641 11.8968 33.4638C11.7779 33.6982 11.6436 33.9517 11.502 34.2187C11.4116 34.3893 11.3182 34.5654 11.224 34.7457C10.9876 35.1982 10.7513 35.6672 10.5793 36.0805C10.4932 36.2872 10.4189 36.4902 10.3687 36.6772C10.3209 36.8553 10.2832 37.0604 10.3038 37.2555C10.3551 37.742 10.6835 38.8879 11.1107 39.9397C11.3273 40.4729 11.5795 41.0078 11.8508 41.4422C11.9864 41.6595 12.1334 41.8624 12.2909 42.0302C12.4446 42.1939 12.6327 42.3505 12.8557 42.4376L12.8715 42.4434C13.2562 42.5789 13.9186 42.7917 14.6441 42.9712C15.3617 43.1488 16.1766 43.303 16.8527 43.303C17.1022 43.303 17.3526 43.2784 17.5766 43.2226C17.7837 43.1709 18.0217 43.0795 18.2011 42.9075C18.5747 42.579 18.772 42.4237 18.9256 42.3412C19.0458 42.2766 19.1443 42.253 19.3522 42.253H19.3525H19.3528H19.353H19.3533H19.3535H19.3538H19.354H19.3543H19.3546H19.3548H19.3551H19.3553H19.3556H19.3558H19.3561H19.3564H19.3566H19.3569H19.3571H19.3574H19.3576H19.3579H19.3582H19.3584H19.3587H19.3589H19.3592H19.3594H19.3597H19.36H19.3602H19.3605H19.3607H19.361H19.3612H19.3615H19.3617H19.362H19.3623H19.3625H19.3628H19.363H19.3633H19.3635H19.3638H19.3641H19.3643H19.3646H19.3648H19.3651H19.3653H19.3656H19.3659H19.3661H19.3664H19.3666H19.3669H19.3671H19.3674H19.3677H19.3679H19.3682H19.3684H19.3687H19.3689H19.3692H19.3695H19.3697H19.37H19.3702H19.3705H19.3707H19.371H19.3713H19.3715H19.3718H19.372H19.3723H19.3725H19.3728H19.3731H19.3733H19.3736H19.3738H19.3741H19.3743H19.3746H19.3749H19.3751H19.3754H19.3756H19.3759H19.3761H19.3764H19.3767H19.3769H19.3772H19.3774H19.3777H19.3779H19.3782H19.3785H19.3787H19.379H19.3792H19.3795H19.3797H19.38H19.3803H19.3805H19.3808H19.381H19.3813H19.3815H19.3818H19.382H19.3823H19.3826H19.3828H19.3831H19.3833H19.3836H19.3838H19.3841H19.3844H19.3846H19.3849H19.3851H19.3854H19.3856H19.3859H19.3862H19.3864H19.3867H19.3869H19.3872H19.3874H19.3877H19.388H19.3882H19.3885H19.3887H19.389H19.3892H19.3895H19.3898H19.39H19.3903H19.3905H19.3908H19.391H19.3913H19.3916H19.3918H19.3921H19.3923H19.3926H19.3928H19.3931H19.3934H19.3936H19.3939H19.3941H19.3944H19.3946H19.3949H19.3952H19.3954H19.3957H19.3959H19.3962H19.3964H19.3967H19.397H19.3972H19.3975H19.3977H19.398H19.3982H19.3985H19.3988H19.399H19.3993H19.3995H19.3998H19.4H19.4003H19.4005H19.4008H19.4011H19.4013H19.4016H19.4018H19.4021H19.4023H19.4026H19.4029H19.4031H19.4034H19.4036H19.4039H19.4041H19.4044H19.4047H19.4049H19.4052H19.4054H19.4057H19.4059H19.4062H19.4065H19.4067H19.407H19.4072H19.4075H19.4077H19.408H19.4083H19.4085H19.4088H19.409H19.4093H19.4095H19.4098H19.4101H19.4103H19.4106H19.4108H19.4111H19.4113H19.4116H19.4119H19.4121H19.4124H19.4126H19.4129H19.4131H19.4134H19.4137H19.4139H19.4142H19.4144H19.4147H19.4149H19.4152H19.4155H19.4157H19.416H19.4162H19.4165H19.4167H19.417H19.4172H19.4175H19.4178H19.418H19.4183H19.4185H19.4188H19.419H19.4193H19.4196H19.4198H19.4201H19.4203H19.4206H19.4208H19.4211H19.4214H19.4216H19.4219H19.4221H19.4224H19.4226H19.4229H19.4232H19.4234H19.4237H19.4239H19.4242H19.4244H19.4247H19.425H19.4252H19.4255H19.4257H19.426H19.4262H19.4265H19.4268H19.427H19.4273H19.4275H19.4278H19.428H19.4283H19.4286H19.4288H19.4291H19.4293H19.4296H19.4298H19.4301H19.4304H19.4306H19.4309H19.4311H19.4314H19.4316H19.4319H19.4322H19.4324H19.4327H19.4329H19.4332H19.4334H19.4337H19.434H19.4342H19.4345H19.4347H19.435H19.4352H19.4355H19.4358H19.436H19.4363H19.4365H19.4368H19.437H19.4373H19.4375H19.4378H19.4381H19.4383H19.4386H19.4388H19.4391H19.4393H19.4396H19.4399H19.4401H19.4404H19.4406H19.4409H19.4411H19.4414H19.4417H19.4419H19.4422H19.4424H19.4427H19.4429H19.4432H19.4435H19.4437H19.444H19.4442H19.4445H19.4447H19.445H19.4453H19.4455H19.4458H19.446H19.4463H19.4465H19.4468H19.4471H19.4473H19.4476H19.4478H19.4481H19.4483H19.4486H19.4489H19.4491H19.4494H19.4496H19.4499H19.4501H19.4504H19.4507H19.4509H19.4512H19.4514H19.4517H19.4519H19.4522H19.4525H19.4527H19.453H19.4532H19.4535H19.4537H19.454H19.4543H19.4545H19.4548H19.455H19.4553H19.4555H19.4558H19.456H19.4563H19.4566H19.4568H19.4571H19.4573H19.4576H19.4578H19.4581H19.4584H19.4586H19.4589H19.4591H19.4594H19.4596H19.4599H19.4602H19.4604H19.4607H19.4609H19.4612H19.4614H19.4617H19.462H19.4622H19.4625H19.4627H19.463H19.4632H19.4635H19.4638H19.464H19.4643H19.4645H19.4648H19.465H19.4653H19.4656H19.4658H19.4661H19.4663H19.4666H19.4668H19.4671H19.4674H19.4676H19.4679H19.4681H19.4684H19.4686H19.4689H19.4692H19.4694H19.4697H19.4699H19.4702H19.4704H19.4707H19.471H19.4712H19.4715H19.4717H19.472H19.4722H19.4725H19.4727H19.473H19.4733H19.4735H19.4738H19.474H19.4743H19.4745H19.4748H19.4751H19.4753H19.4756H19.4758H19.4761H19.4763H19.4766H19.4769H19.4771H19.4774H19.4776H19.4779H19.4781H19.4784H19.4787H19.4789H19.4792H19.4794H19.4797H19.4799H19.4802H19.4805H19.4807H19.481H19.4812H19.4815H19.4817H19.482H19.4823H19.4825H19.4828H19.483H19.4833H19.4835H19.4838C19.5623 42.253 19.6512 42.2605 19.7781 42.271L19.8042 42.2732C19.9368 42.2842 20.0972 42.2968 20.2731 42.2968C21.0133 42.2968 22.0951 42.1631 22.8942 41.419L22.9066 41.407C23.3487 40.9659 23.9473 40.4449 24.5258 39.9414C24.5589 39.9126 24.592 39.8838 24.6249 39.8551C25.2137 39.3425 25.7972 38.8322 26.0901 38.4914C26.0945 38.4863 26.0987 38.4811 26.1029 38.4758C26.8392 37.5454 27.2347 36.2728 27.0393 34.9907C26.9382 34.1615 27.3796 33.3955 28.0426 32.4689C28.4575 31.9243 29.0458 31.1634 29.5318 30.5368C29.7482 30.258 29.944 30.006 30.095 29.8119C32.7775 31.9971 34.4198 35.1766 34.4198 38.6905C34.4198 45.2035 28.7171 50.528 21.5887 50.528C20.4881 50.528 19.4308 50.4015 18.3724 50.148C18.1134 50.086 17.8513 50.2379 17.7762 50.4933C17.7012 50.7488 17.8395 51.0183 18.0908 51.1062C21.5188 52.3055 24.4249 52.7093 26.8071 52.7093C29.2114 52.7093 31.0899 52.2971 32.4079 51.8582C32.175 52.0894 31.92 52.3333 31.6452 52.5832C31.4925 52.7222 31.4408 52.9408 31.5154 53.1334C31.5899 53.326 31.7751 53.453 31.9817 53.453H31.9819H31.9822H31.9825H31.9827H31.983H31.9832H31.9835H31.9837H31.984H31.9842H31.9845H31.9847H31.9849H31.9852H31.9854H31.9857H31.9859H31.9862H31.9864H31.9866H31.9869H31.9871H31.9873H31.9876H31.9878H31.988H31.9883H31.9885H31.9887H31.989H31.9892H31.9894H31.9896H31.9899H31.9901H31.9903H31.9905H31.9907H31.991H31.9912H31.9914H31.9916H31.9918H31.992H31.9923H31.9925H31.9927H31.9929H31.9931H31.9933H31.9935H31.9937H31.9939H31.9941H31.9944H31.9946H31.9948H31.995H31.9952H31.9954H31.9956H31.9958H31.996H31.9962H31.9964H31.9966H31.9967H31.9969H31.9971H31.9973H31.9975H31.9977H31.9979H31.9981H31.9983H31.9985H31.9986H31.9988H31.999H31.9992H31.9994H31.9996H31.9997H31.9999H32.0001H32.0003H32.0005H32.0006H32.0008H32.001H32.0012H32.0013H32.0015H32.0017H32.0018H32.002H32.0022H32.0024H32.0025H32.0027H32.0029H32.003H32.0032H32.0033H32.0035H32.0037H32.0038H32.004H32.0042H32.0043H32.0045H32.0046H32.0048H32.0049H32.0051H32.0052H32.0054H32.0056H32.0057H32.0059H32.006H32.0062H32.0063H32.0065H32.0066H32.0067H32.0069H32.007H32.0072H32.0073H32.0075H32.0076H32.0078H32.0079H32.008H32.0082H32.0083H32.0084H32.0086H32.0087H32.0089H32.009H32.0091H32.0093H32.0094H32.0095H32.0097H32.0098H32.0099H32.01H32.0102H32.0103H32.0104H32.0105H32.0107H32.0108H32.0109H32.011H32.0112H32.0113H32.0114H32.0115H32.0117H32.0118H32.0119H32.012H32.0121H32.0122H32.0124H32.0125H32.0126H32.0127H32.0128H32.0129H32.013H32.0131H32.0133H32.0134H32.0135H32.0136H32.0137H32.0138H32.0139H32.014H32.0141H32.0142H32.0143H32.0144H32.0145H32.0146H32.0147H32.0148H32.0149H32.015H32.0151H32.0152H32.0153H32.0154H32.0155H32.0156H32.0157H32.0158H32.0159H32.016H32.0161H32.0162H32.0163H32.0164H32.0164H32.0165H32.0166H32.0167H32.0168H32.0169H32.017H32.0171H32.0172H32.0172H32.0173H32.0174H32.0175H32.0176H32.0177H32.0177H32.0178H32.0179H32.018H32.0181H32.0181H32.0182H32.0183H32.0184H32.0184H32.0185H32.0186H32.0187H32.0187H32.0188H32.0189H32.019H32.019H32.0191H32.0192H32.0192H32.0193H32.0194H32.0195H32.0195H32.0196H32.0197H32.0197H32.0198H32.0199H32.0199H32.02H32.0201H32.0201H32.0202H32.0202H32.0203H32.0204H32.0204H32.0205H32.0206H32.0206H32.0207H32.0207H32.0208H32.0208H32.0209H32.021H32.021H32.0211H32.0211H32.0212H32.0212H32.0213H32.0214H32.0214H32.0215H32.0215H32.0216H32.0216H32.0217H32.0217H32.0218H32.0218H32.0219H32.0219H32.022H32.022H32.0221H32.0221H32.0222H32.0222H32.0222H32.0223H32.0223H32.0224H32.0224H32.0225H32.0225H32.0226H32.0226H32.0226H32.0227H32.0227H32.0228H32.0228H32.0228H32.0229H32.0229H32.023H32.023H32.023H32.0231H32.0231H32.0232H32.0232H32.0232H32.0233H32.0233H32.0233H32.0234H32.0234H32.0234H32.0235H32.0235H32.0235H32.0236H32.0236H32.0236H32.0237H32.0237H32.0237H32.0238H32.0238H32.0238H32.0239H32.0239H32.024H32.024H32.0241H32.0241H32.0242H32.0243H32.0243H32.0243H32.0244H32.0244H32.0245H32.0245H32.0246H32.0246H32.0246H32.0247H32.0247H32.0248H32.0248H32.0248H32.0249H32.0249H32.0249H32.025H32.025H32.025H32.0251H32.0251H32.0251H32.0252H32.0252H32.0252H32.0253H32.0253H32.0253H32.0254H32.0254H32.0254H32.0255H32.0255H32.0255V53.0013L32.0334 53.0099L32.0942 53.4483C36.3207 52.862 39.4574 50.8328 41.5312 48.9601C42.286 48.2785 42.9019 47.616 43.3805 47.0483C43.2781 47.5841 43.159 48.1442 43.0315 48.6248C42.9769 48.8306 43.0587 49.0484 43.2352 49.1675C43.4117 49.2866 43.6442 49.2809 43.8146 49.1532C49.3739 44.9879 51.7037 40.2806 52.6281 36.5523C53.0892 34.6922 53.1994 33.0816 53.1909 31.9105C53.19 31.7873 53.1878 31.669 53.1846 31.5557C53.4491 31.8762 53.7145 32.1979 53.9148 32.4438C54.0428 32.6009 54.253 32.6653 54.447 32.6067C54.641 32.5481 54.7805 32.3782 54.8001 32.1765C55.6929 23.0023 52.3732 16.9033 48.813 13.1049C47.0379 11.2109 45.2075 9.89311 43.8201 9.04808Z" stroke="url(#paint0_linear_30404_4593)" stroke-opacity="0.5"/>
<path fill-rule="evenodd" clip-rule="evenodd" d="M23.4235 38.0762L23.4238 38.076L23.4239 38.0758C23.8747 37.6682 24.3479 37.2402 24.4829 37.0718C24.8338 36.5468 25.053 35.8905 24.9653 35.1905V35.103C24.4829 33.2218 22.5973 32.2155 21.9834 32.2593C21.2817 32.3468 20.317 32.478 20.01 32.6968C20.5801 31.8218 21.3694 31.3843 22.1588 31.1655C22.8166 29.2843 24.2198 25.4343 24.5268 25.1718C24.7022 25.0405 25.1407 24.9093 25.8862 24.6905C26.3247 24.603 26.9387 24.428 27.0264 24.3405C27.1721 24.1224 28.4078 21.1857 28.897 20.0232L28.8988 20.0189C28.9974 19.7847 29.0653 19.6232 29.0874 19.5718C29.0436 19.2655 28.1665 17.0343 27.2456 14.8905C25.0092 16.5093 22.5973 16.0718 22.5973 16.0718C22.5973 16.0718 24.3075 15.5905 26.0616 13.0093C27.7719 10.428 26.1493 6.88428 26.1493 6.88428C26.1493 6.88428 20.1416 15.8968 19.3961 16.0718C18.6506 16.2468 18.1244 15.328 18.1244 15.328C18.1244 15.328 16.5457 19.4405 16.1072 20.928C15.6686 22.4155 16.1949 23.8155 16.5895 24.5155C17.0281 25.2155 17.949 26.9655 16.6772 28.7593C16.8527 27.9718 16.0633 26.7468 15.4932 26.003C15.274 27.928 14.7039 32.5218 14.5285 33.2655C14.4449 33.7657 14.1623 34.3057 13.6807 35.2259L13.6076 35.3655C13.5338 35.5127 13.4394 35.6909 13.3387 35.8807C13.0804 36.3679 12.7814 36.9319 12.6867 37.2468C12.8621 38.0343 13.5199 39.9155 13.9584 40.4843C14.5723 40.703 15.4494 40.9218 16.1949 41.053C16.5457 41.053 16.9842 40.878 17.5981 40.3093C17.7172 40.1996 17.832 40.0952 17.9423 39.9949L17.9425 39.9947C18.8883 39.1342 19.5067 38.5717 19.703 37.553C19.7761 37.1885 19.8151 36.7558 19.8541 36.3232C19.9321 35.4579 20.01 34.5926 20.3608 34.2718C20.8432 33.7905 21.8957 33.5718 22.7289 33.7905C22.0711 33.7905 21.3256 34.0968 21.3256 34.0968C21.3256 34.0968 22.5973 33.878 23.0797 34.7968C23.562 35.7155 23.1674 36.2405 22.378 36.7655C21.7202 37.203 19.7907 39.2155 19.133 40.0905H20.4485C20.9748 40.0905 21.3256 40.003 21.501 39.828C21.7871 39.5426 22.1292 39.2385 22.4787 38.9279L22.479 38.9277L22.4798 38.927C22.6655 38.7619 22.8533 38.595 23.0358 38.428C23.1564 38.3177 23.2886 38.1982 23.4227 38.0769L23.4235 38.0762ZM25.0969 12.4405C26.1055 11.2592 25.7108 9.50923 25.7108 9.50923L22.7727 13.8405C22.7289 13.8405 23.8252 13.8842 25.0969 12.4405ZM15.2301 36.1093L15.5809 34.3593C15.5809 34.3593 14.1338 36.8968 14.0023 37.2468C13.8707 37.6406 14.09 38.3406 14.66 38.2968C15.2301 38.2531 15.9318 37.4218 15.9318 36.8093C15.9318 36.0218 15.2301 36.1093 15.2301 36.1093ZM23.4305 22.8093C24.2637 21.8468 23.8252 20.053 22.2903 19.7468C22.685 18.828 23.2551 16.9905 23.2551 16.9905C23.2551 16.9905 18.7822 23.9905 18.3875 24.1218C17.9928 24.253 17.5981 22.7218 17.5981 22.7218C16.7649 25.9155 19.0014 26.353 19.2645 25.3468C20.4924 25.0405 22.5973 23.728 23.4305 22.8093Z" fill="white"/>
<path d="M20.7343 36.0342C20.7104 36.4578 20.6714 37.1492 20.3608 37.5968C20.3914 37.5663 20.4858 37.4668 20.6088 37.3371L20.6092 37.3368C20.8393 37.0942 21.1695 36.7463 21.3694 36.5468C21.506 36.4242 21.6595 36.327 21.8062 36.2342C22.1307 36.0289 22.4219 35.8447 22.4219 35.453C22.4219 34.8405 21.5887 34.7093 21.2379 34.7968C20.8871 34.8843 20.7994 35.453 20.7555 35.7593C20.7462 35.8245 20.7408 35.9196 20.7343 36.0342Z" fill="white"/>
<path d="M37.8579 29.2405C38.2964 27.0093 38.3402 25.0843 38.2087 23.5093C39.9189 25.7843 40.9714 28.5405 41.2783 31.3843C41.3222 31.7343 41.673 32.0843 42.0238 32.4343C42.3308 32.6968 42.6816 33.0468 42.6816 33.2655C42.6816 34.2718 42.5939 35.278 42.4185 36.2843C42.3769 36.4087 42.0201 36.6117 41.7216 36.7816L41.673 36.8093C41.2345 37.028 40.8398 37.2468 40.7521 37.5968C39.7874 40.9655 37.7263 43.9405 34.9636 46.0405C39.0419 41.7968 41.0152 34.7968 37.8579 29.2405Z" fill="white"/>
<path d="M41.1029 37.728C40.1382 41.1843 37.9456 44.2468 35.0952 46.4343C41.1468 43.5468 45.3127 37.378 45.3127 30.2905C45.3127 21.0593 38.2964 13.4468 29.3067 12.4843C28.9997 12.9655 28.6928 13.403 28.3858 13.753C29.0436 15.3718 30.7538 19.6155 30.7538 19.8343C30.7538 20.0968 29.9206 22.2405 29.8329 22.328C29.7452 22.3718 28.7366 22.4593 28.3419 22.4593C27.9034 23.5093 27.4649 24.5155 27.3772 24.6468C27.2456 24.8218 26.851 24.953 26.0178 25.1718C25.9292 25.1983 25.8316 25.2266 25.7316 25.2556L25.7306 25.2559L25.7302 25.256L25.7299 25.2561C25.3355 25.3705 24.9036 25.4958 24.8338 25.5655C24.6145 25.828 23.4305 28.9343 22.6411 31.1218C23.6936 30.9468 24.6145 31.1655 24.8338 31.253C26.544 28.0155 27.9034 26.2655 28.2542 26.2655C28.2915 26.2609 28.3718 26.2636 28.4876 26.2676C29.4615 26.3011 32.9434 26.4206 34.3935 22.9405C35.9486 19.1482 33.7594 15.9077 33.6096 15.686L33.6042 15.678L33.6111 15.6814C33.8046 15.775 37.2143 17.4253 38.0771 22.5905C40.0505 25.0843 41.3222 28.103 41.673 31.2968C41.673 31.4603 41.8691 31.6728 42.0597 31.8793L42.06 31.8796L42.0604 31.88C42.1245 31.9495 42.1879 32.0183 42.2431 32.0843C42.6378 32.478 43.0324 32.8718 43.0324 33.2655C43.0324 34.3155 42.9447 35.3655 42.7693 36.3718C42.6816 36.7218 42.2431 36.9843 41.8046 37.203C41.7452 37.2425 41.679 37.2843 41.6117 37.3268L41.611 37.3272L41.6108 37.3273C41.3805 37.4728 41.1368 37.6266 41.1029 37.728Z" fill="white"/>
<path d="M15.3179 18.0843C15.6248 17.5155 15.3617 17.1218 15.0986 16.903L15.0109 16.8155C14.4847 16.553 11.1957 15.328 7.95068 14.1905C10.8011 16.0718 13.9584 17.9093 14.4847 18.1718C14.8793 18.3468 15.1424 18.3905 15.3179 18.0843Z" fill="white"/>
<path d="M23.4239 38.0761L23.4237 38.0763L23.4212 38.0785C23.2876 38.1993 23.1561 38.3183 23.0359 38.4281C22.8534 38.5951 22.6656 38.762 22.4799 38.9271L22.4791 38.9278L22.4788 38.928C22.1294 39.2386 21.7872 39.5427 21.5011 39.8281C21.3257 40.0031 20.9749 40.0906 20.4487 40.0906H19.1331C19.3969 39.7397 19.8652 39.2058 20.3741 38.664C20.6543 38.4053 20.9372 38.1579 21.194 37.9468C21.6437 37.5756 22.0933 37.3247 22.4868 37.1051C23.2061 36.7037 23.7375 36.4071 23.7375 35.6718C23.7651 34.181 22.7625 33.8923 22.0189 33.8822C22.2406 33.8309 22.4906 33.7906 22.729 33.7906C21.8958 33.5719 20.8433 33.7906 20.361 34.2719C20.0101 34.5927 19.9322 35.458 19.8542 36.3233C19.8152 36.7559 19.7763 37.1886 19.7032 37.5531C19.5068 38.5718 18.8885 39.1343 17.9426 39.9948L17.9397 39.9974C17.8302 40.097 17.7164 40.2006 17.5983 40.3094C17.5707 40.3349 17.5435 40.3597 17.5166 40.3836L14.6162 39.7406C14.6162 39.7406 16.5457 38.7343 16.8527 37.5968C17.1276 36.6172 16.4176 33.602 16.2349 32.8263C16.2136 32.7359 16.1995 32.6759 16.1949 32.6531C16.1976 32.6558 16.2035 32.6611 16.2122 32.6691C16.3449 32.7903 17.1401 33.516 17.5105 34.6656C18.2121 32.7406 19.133 30.9031 19.3961 30.7281C19.6222 30.5777 22.2765 29.1676 23.0192 28.7736C22.6944 29.653 22.3833 30.5239 22.1589 31.1656C21.3696 31.3844 20.5802 31.8219 20.0101 32.6969C20.3171 32.4781 21.2818 32.3469 21.9835 32.2594C22.5974 32.2156 24.4831 33.2219 24.9654 35.1031V35.1906C25.0531 35.8906 24.8339 36.5469 24.4831 37.0719C24.348 37.2404 23.8747 37.6684 23.4239 38.0761Z" fill="#94A6C3"/>
<path d="M22.994 31.0767C23.8939 30.9949 24.6395 31.1756 24.8339 31.2531C26.5441 28.0156 27.9035 26.2656 28.2544 26.2656C28.2916 26.261 28.3719 26.2637 28.4877 26.2677C29.4616 26.3012 32.9435 26.4207 34.3937 22.9406C35.9487 19.1483 33.7595 15.9078 33.6097 15.6861L33.6043 15.6781L33.6112 15.6815C33.8007 15.7732 37.077 17.3589 38.0215 22.2797C40.2005 24.8168 41.5666 27.9855 41.9362 31.3406C41.9362 31.5593 42.2431 31.8656 42.5501 32.1281C42.9448 32.5218 43.3394 32.9156 43.3394 33.3093C43.3394 34.3593 43.2517 35.4093 43.0763 36.4156C42.9987 36.7254 42.6462 36.9324 42.2621 37.1579L42.2618 37.158L42.2615 37.1582C42.2119 37.1874 42.1617 37.2168 42.1116 37.2468C42.052 37.2865 41.9856 37.3284 41.9181 37.371L41.9179 37.3711C41.6875 37.5166 41.4438 37.6704 41.4099 37.7718C40.5171 40.93 38.6478 43.7508 36.1495 45.8877C40.2729 43.5728 43.3821 39.6813 44.6666 35.0532C45.093 33.229 45.1659 31.318 44.8304 29.3718C43.2517 20.4468 34.1305 15.8969 33.6043 15.6781C35.4461 21.7156 31.3678 25.0843 28.6051 25.1281C27.0702 25.1281 25.0092 26.1343 25.0092 26.1343L22.994 31.0767Z" fill="#94A6C3"/>
<path d="M23.0659 15.8722C22.9 15.9126 22.7293 15.9501 22.5535 15.9843C22.5552 15.9843 22.5669 15.9877 22.5881 15.994C22.6154 16.002 22.6585 16.0147 22.7161 16.0305C22.7966 15.9996 22.9156 15.9491 23.0659 15.8722Z" fill="#94A6C3"/>
<path d="M23.0659 16.1181C23.8755 16.1588 25.6077 16.0763 27.2458 14.8906C27.4122 15.2781 27.5772 15.6684 27.7361 16.0497C25.7215 16.589 23.9151 16.3111 23.0659 16.1181Z" fill="#94A6C3"/>
<path d="M29.1132 15.5541C30.2044 15.053 31.3069 14.2688 32.311 13.0694C31.3405 12.7922 30.3366 12.5946 29.3068 12.4844C28.9998 12.9656 28.6929 13.4031 28.3859 13.7531C28.5675 14.2 28.8293 14.847 29.1132 15.5541Z" fill="#94A6C3"/>
<path d="M37.858 29.2406C38.2965 27.0094 38.3404 25.0844 38.2088 23.5094C39.919 25.7844 40.9715 28.5406 41.2785 31.3844C41.3223 31.7344 41.6731 32.0844 42.024 32.4344C42.3309 32.6969 42.6817 33.0469 42.6817 33.2656C42.6817 34.2719 42.594 35.2781 42.4186 36.2844C42.3771 36.4088 42.0203 36.6118 41.7218 36.7817L41.6731 36.8094C41.2346 37.0281 40.8399 37.2469 40.7522 37.5969C39.7875 40.9656 37.7264 43.9406 34.9637 46.0406C39.042 41.7969 41.0154 34.7969 37.858 29.2406Z" fill="#94A6C3"/>
<path d="M19.6152 24.5157L21.8955 20.6219C21.8955 20.6219 23.2111 21.2782 22.5533 22.3282C21.7201 23.5532 19.6152 24.5157 19.6152 24.5157Z" fill="#FFD923"/>
<path d="M47.8123 42.5406C47.1545 43.4156 46.4091 44.3344 45.532 45.2094C51.1889 34.3594 45.7951 24.4281 45.5759 24.0343C45.9705 24.4281 46.3652 24.8656 46.716 25.2593C51.0574 30.0718 51.5836 37.2906 47.8123 42.5406Z" fill="#D82122"/>
<path d="M53.0746 28.5843C51.1012 23.2906 48.2947 18.7843 42.1115 14.7156C36.1476 10.7781 29.7452 11.0843 29.3944 11.1281C29.3505 11.1281 29.3067 11.1281 29.3067 11.1281C29.5259 11.0406 29.7452 10.9968 29.9645 10.9531C31.3239 10.5156 33.078 10.1656 34.8321 9.94683C39.4804 9.29058 44.1726 10.8656 47.3738 14.2343C47.4177 14.2781 47.4177 14.2781 47.4615 14.3218C51.1012 18.1718 52.9869 22.9843 53.0746 28.5843Z" fill="#D82122"/>
<path d="M40.7083 6.92819C34.1743 5.70319 29.9645 6.31569 26.9387 7.45319C26.851 7.10319 26.544 6.40319 26.2809 5.83444C25.36 6.92819 24.3952 8.24069 23.7813 9.07194C22.1149 10.2094 21.4133 11.3032 21.4133 11.3032C22.378 8.02194 25.1846 5.57194 28.605 4.95944C29.5698 4.78444 30.6222 4.69694 31.7624 4.69694C34.7882 4.74069 37.814 5.48444 40.7083 6.92819Z" fill="#D82122"/>
<path d="M16.5457 15.3282C11.415 15.1532 13.1252 9.20319 13.2129 8.85319C13.2129 8.89694 13.5638 13.5344 16.5457 15.3282Z" fill="#D82122"/>
<path d="M21.5887 4.60938C17.642 6.97188 18.4313 12.6156 18.4313 12.6156C14.66 6.88437 21.2817 4.74063 21.5887 4.60938Z" fill="#D82122"/>
<path d="M62.813 15.4666H68.1588V36.8H73.5046V10.1333H68.1588C65.2186 10.1333 62.813 12.5333 62.813 15.4666Z" fill="white"/>
<path d="M78.8504 36.8H84.1962V26.1333C84.1962 23.2 81.7906 20.8 78.8504 20.8V36.8Z" fill="white"/>
<path d="M89.542 20.8V36.8H94.8878V26.1333H100.234V31.4666C100.234 34.4 102.639 36.8 105.579 36.8V26.1333C105.579 23.2 103.174 20.8 100.234 20.8H89.542Z" fill="white"/>
<path d="M137.654 20.8H132.308V15.4666C132.308 12.5333 129.903 10.1333 126.963 10.1333V31.4666H116.271V26.1333H121.617V20.8H116.271C113.331 20.8 110.925 23.2 110.925 26.1333V31.4666C110.925 34.4 113.331 36.8 116.271 36.8H132.308V26.1333H137.654V31.4666C137.654 34.4 140.06 36.8 143 36.8V26.1333C143 23.2 140.594 20.8 137.654 20.8Z" fill="white"/>
<path d="M78.8504 15.4666H84.1962C84.1962 12.5333 81.7906 10.1333 78.8504 10.1333V15.4666Z" fill="white"/>
</g>
<defs>
<linearGradient id="paint0_linear_30404_4593" x1="4.49963" y1="3" x2="48.4996" y2="51.5" gradientUnits="userSpaceOnUse">
<stop stop-color="white" stop-opacity="0.7"/>
<stop offset="1" stop-color="white" stop-opacity="0.3"/>
</linearGradient>
<clipPath id="clip0_30404_4593">
<rect width="143" height="56" fill="white"/>
</clipPath>
</defs>
</svg>
